<mxfile host="app.diagrams.net" modified="2022-07-03T15:02:12.369Z" agent="5.0 (Windows)" etag="k5OAezrZUe2J2M-mfey3" version="20.0.4" type="github">
  <diagram id="T--J37yt5f-02SKUWwvs" name="Page-1">
    <mxGraphModel dx="3005" dy="2711" grid="1" gridSize="10" guides="1" tooltips="1" connect="1" arrows="1" fold="1" page="1" pageScale="1" pageWidth="850" pageHeight="1100" background="#E6E6E6" math="0" shadow="0">
      <root>
        <mxCell id="0" />
        <mxCell id="1" parent="0" />
        <mxCell id="gwSPfHCUQROc68bD6OqH-1" value="Customer" style="shape=table;startSize=30;container=1;collapsible=1;childLayout=tableLayout;fixedRows=1;rowLines=0;fontStyle=1;align=center;resizeLast=1;fillColor=#99CCFF;" vertex="1" parent="1">
          <mxGeometry x="840" y="340" width="220" height="655" as="geometry">
            <mxRectangle x="1210" y="238" width="90" height="30" as="alternateBounds" />
          </mxGeometry>
        </mxCell>
        <mxCell id="gwSPfHCUQROc68bD6OqH-2" value="" style="shape=tableRow;horizontal=0;startSize=0;swimlaneHead=0;swimlaneBody=0;fillColor=#99CCFF;collapsible=0;dropTarget=0;points=[[0,0.5],[1,0.5]];portConstraint=eastwest;top=0;left=0;right=0;bottom=1;" vertex="1" parent="gwSPfHCUQROc68bD6OqH-1">
          <mxGeometry y="30" width="220" height="30" as="geometry" />
        </mxCell>
        <mxCell id="gwSPfHCUQROc68bD6OqH-3" value="PK" style="shape=partialRectangle;connectable=0;fillColor=#99CCFF;top=0;left=0;bottom=0;right=0;fontStyle=1;overflow=hidden;" vertex="1" parent="gwSPfHCUQROc68bD6OqH-2">
          <mxGeometry width="30" height="30" as="geometry">
            <mxRectangle width="30" height="30" as="alternateBounds" />
          </mxGeometry>
        </mxCell>
        <mxCell id="gwSPfHCUQROc68bD6OqH-4" value="cus_id int NOT NULL" style="shape=partialRectangle;connectable=0;fillColor=#99CCFF;top=0;left=0;bottom=0;right=0;align=left;spacingLeft=6;fontStyle=5;overflow=hidden;" vertex="1" parent="gwSPfHCUQROc68bD6OqH-2">
          <mxGeometry x="30" width="190" height="30" as="geometry">
            <mxRectangle width="190" height="30" as="alternateBounds" />
          </mxGeometry>
        </mxCell>
        <mxCell id="gwSPfHCUQROc68bD6OqH-5" value="" style="shape=tableRow;horizontal=0;startSize=0;swimlaneHead=0;swimlaneBody=0;fillColor=#99CCFF;collapsible=0;dropTarget=0;points=[[0,0.5],[1,0.5]];portConstraint=eastwest;top=0;left=0;right=0;bottom=0;" vertex="1" parent="gwSPfHCUQROc68bD6OqH-1">
          <mxGeometry y="60" width="220" height="35" as="geometry" />
        </mxCell>
        <mxCell id="gwSPfHCUQROc68bD6OqH-6" value="" style="shape=partialRectangle;connectable=0;fillColor=#99CCFF;top=0;left=0;bottom=0;right=0;editable=1;overflow=hidden;" vertex="1" parent="gwSPfHCUQROc68bD6OqH-5">
          <mxGeometry width="30" height="35" as="geometry">
            <mxRectangle width="30" height="35" as="alternateBounds" />
          </mxGeometry>
        </mxCell>
        <mxCell id="gwSPfHCUQROc68bD6OqH-7" value="cus_title" style="shape=partialRectangle;connectable=0;fillColor=#99CCFF;top=0;left=0;bottom=0;right=0;align=left;spacingLeft=6;overflow=hidden;" vertex="1" parent="gwSPfHCUQROc68bD6OqH-5">
          <mxGeometry x="30" width="190" height="35" as="geometry">
            <mxRectangle width="190" height="35" as="alternateBounds" />
          </mxGeometry>
        </mxCell>
        <mxCell id="gwSPfHCUQROc68bD6OqH-8" value="" style="shape=tableRow;horizontal=0;startSize=0;swimlaneHead=0;swimlaneBody=0;fillColor=#99CCFF;collapsible=0;dropTarget=0;points=[[0,0.5],[1,0.5]];portConstraint=eastwest;top=0;left=0;right=0;bottom=0;" vertex="1" parent="gwSPfHCUQROc68bD6OqH-1">
          <mxGeometry y="95" width="220" height="35" as="geometry" />
        </mxCell>
        <mxCell id="gwSPfHCUQROc68bD6OqH-9" value="" style="shape=partialRectangle;connectable=0;fillColor=#99CCFF;top=0;left=0;bottom=0;right=0;editable=1;overflow=hidden;" vertex="1" parent="gwSPfHCUQROc68bD6OqH-8">
          <mxGeometry width="30" height="35" as="geometry">
            <mxRectangle width="30" height="35" as="alternateBounds" />
          </mxGeometry>
        </mxCell>
        <mxCell id="gwSPfHCUQROc68bD6OqH-10" value="cus_f_name" style="shape=partialRectangle;connectable=0;fillColor=#99CCFF;top=0;left=0;bottom=0;right=0;align=left;spacingLeft=6;overflow=hidden;" vertex="1" parent="gwSPfHCUQROc68bD6OqH-8">
          <mxGeometry x="30" width="190" height="35" as="geometry">
            <mxRectangle width="190" height="35" as="alternateBounds" />
          </mxGeometry>
        </mxCell>
        <mxCell id="gwSPfHCUQROc68bD6OqH-11" value="" style="shape=tableRow;horizontal=0;startSize=0;swimlaneHead=0;swimlaneBody=0;fillColor=#99CCFF;collapsible=0;dropTarget=0;points=[[0,0.5],[1,0.5]];portConstraint=eastwest;top=0;left=0;right=0;bottom=0;" vertex="1" parent="gwSPfHCUQROc68bD6OqH-1">
          <mxGeometry y="130" width="220" height="35" as="geometry" />
        </mxCell>
        <mxCell id="gwSPfHCUQROc68bD6OqH-12" value="" style="shape=partialRectangle;connectable=0;fillColor=#99CCFF;top=0;left=0;bottom=0;right=0;editable=1;overflow=hidden;" vertex="1" parent="gwSPfHCUQROc68bD6OqH-11">
          <mxGeometry width="30" height="35" as="geometry">
            <mxRectangle width="30" height="35" as="alternateBounds" />
          </mxGeometry>
        </mxCell>
        <mxCell id="gwSPfHCUQROc68bD6OqH-13" value="cus_l_name" style="shape=partialRectangle;connectable=0;fillColor=#99CCFF;top=0;left=0;bottom=0;right=0;align=left;spacingLeft=6;overflow=hidden;" vertex="1" parent="gwSPfHCUQROc68bD6OqH-11">
          <mxGeometry x="30" width="190" height="35" as="geometry">
            <mxRectangle width="190" height="35" as="alternateBounds" />
          </mxGeometry>
        </mxCell>
        <mxCell id="gwSPfHCUQROc68bD6OqH-14" value="" style="shape=tableRow;horizontal=0;startSize=0;swimlaneHead=0;swimlaneBody=0;fillColor=#99CCFF;collapsible=0;dropTarget=0;points=[[0,0.5],[1,0.5]];portConstraint=eastwest;top=0;left=0;right=0;bottom=0;" vertex="1" parent="gwSPfHCUQROc68bD6OqH-1">
          <mxGeometry y="165" width="220" height="35" as="geometry" />
        </mxCell>
        <mxCell id="gwSPfHCUQROc68bD6OqH-15" value="" style="shape=partialRectangle;connectable=0;fillColor=#99CCFF;top=0;left=0;bottom=0;right=0;editable=1;overflow=hidden;" vertex="1" parent="gwSPfHCUQROc68bD6OqH-14">
          <mxGeometry width="30" height="35" as="geometry">
            <mxRectangle width="30" height="35" as="alternateBounds" />
          </mxGeometry>
        </mxCell>
        <mxCell id="gwSPfHCUQROc68bD6OqH-16" value="cus_nic" style="shape=partialRectangle;connectable=0;fillColor=#99CCFF;top=0;left=0;bottom=0;right=0;align=left;spacingLeft=6;overflow=hidden;" vertex="1" parent="gwSPfHCUQROc68bD6OqH-14">
          <mxGeometry x="30" width="190" height="35" as="geometry">
            <mxRectangle width="190" height="35" as="alternateBounds" />
          </mxGeometry>
        </mxCell>
        <mxCell id="gwSPfHCUQROc68bD6OqH-17" value="" style="shape=tableRow;horizontal=0;startSize=0;swimlaneHead=0;swimlaneBody=0;fillColor=#99CCFF;collapsible=0;dropTarget=0;points=[[0,0.5],[1,0.5]];portConstraint=eastwest;top=0;left=0;right=0;bottom=0;" vertex="1" parent="gwSPfHCUQROc68bD6OqH-1">
          <mxGeometry y="200" width="220" height="35" as="geometry" />
        </mxCell>
        <mxCell id="gwSPfHCUQROc68bD6OqH-18" value="" style="shape=partialRectangle;connectable=0;fillColor=#99CCFF;top=0;left=0;bottom=0;right=0;editable=1;overflow=hidden;" vertex="1" parent="gwSPfHCUQROc68bD6OqH-17">
          <mxGeometry width="30" height="35" as="geometry">
            <mxRectangle width="30" height="35" as="alternateBounds" />
          </mxGeometry>
        </mxCell>
        <mxCell id="gwSPfHCUQROc68bD6OqH-19" value="cus_dob" style="shape=partialRectangle;connectable=0;fillColor=#99CCFF;top=0;left=0;bottom=0;right=0;align=left;spacingLeft=6;overflow=hidden;" vertex="1" parent="gwSPfHCUQROc68bD6OqH-17">
          <mxGeometry x="30" width="190" height="35" as="geometry">
            <mxRectangle width="190" height="35" as="alternateBounds" />
          </mxGeometry>
        </mxCell>
        <mxCell id="gwSPfHCUQROc68bD6OqH-20" value="" style="shape=tableRow;horizontal=0;startSize=0;swimlaneHead=0;swimlaneBody=0;fillColor=#99CCFF;collapsible=0;dropTarget=0;points=[[0,0.5],[1,0.5]];portConstraint=eastwest;top=0;left=0;right=0;bottom=0;" vertex="1" parent="gwSPfHCUQROc68bD6OqH-1">
          <mxGeometry y="235" width="220" height="35" as="geometry" />
        </mxCell>
        <mxCell id="gwSPfHCUQROc68bD6OqH-21" value="" style="shape=partialRectangle;connectable=0;fillColor=#99CCFF;top=0;left=0;bottom=0;right=0;editable=1;overflow=hidden;" vertex="1" parent="gwSPfHCUQROc68bD6OqH-20">
          <mxGeometry width="30" height="35" as="geometry">
            <mxRectangle width="30" height="35" as="alternateBounds" />
          </mxGeometry>
        </mxCell>
        <mxCell id="gwSPfHCUQROc68bD6OqH-22" value="cus_mobile" style="shape=partialRectangle;connectable=0;fillColor=#99CCFF;top=0;left=0;bottom=0;right=0;align=left;spacingLeft=6;overflow=hidden;" vertex="1" parent="gwSPfHCUQROc68bD6OqH-20">
          <mxGeometry x="30" width="190" height="35" as="geometry">
            <mxRectangle width="190" height="35" as="alternateBounds" />
          </mxGeometry>
        </mxCell>
        <mxCell id="gwSPfHCUQROc68bD6OqH-23" value="" style="shape=tableRow;horizontal=0;startSize=0;swimlaneHead=0;swimlaneBody=0;fillColor=#99CCFF;collapsible=0;dropTarget=0;points=[[0,0.5],[1,0.5]];portConstraint=eastwest;top=0;left=0;right=0;bottom=0;" vertex="1" parent="gwSPfHCUQROc68bD6OqH-1">
          <mxGeometry y="270" width="220" height="35" as="geometry" />
        </mxCell>
        <mxCell id="gwSPfHCUQROc68bD6OqH-24" value="" style="shape=partialRectangle;connectable=0;fillColor=#99CCFF;top=0;left=0;bottom=0;right=0;editable=1;overflow=hidden;" vertex="1" parent="gwSPfHCUQROc68bD6OqH-23">
          <mxGeometry width="30" height="35" as="geometry">
            <mxRectangle width="30" height="35" as="alternateBounds" />
          </mxGeometry>
        </mxCell>
        <mxCell id="gwSPfHCUQROc68bD6OqH-25" value="cus_email" style="shape=partialRectangle;connectable=0;fillColor=#99CCFF;top=0;left=0;bottom=0;right=0;align=left;spacingLeft=6;overflow=hidden;" vertex="1" parent="gwSPfHCUQROc68bD6OqH-23">
          <mxGeometry x="30" width="190" height="35" as="geometry">
            <mxRectangle width="190" height="35" as="alternateBounds" />
          </mxGeometry>
        </mxCell>
        <mxCell id="gwSPfHCUQROc68bD6OqH-26" value="" style="shape=tableRow;horizontal=0;startSize=0;swimlaneHead=0;swimlaneBody=0;fillColor=#99CCFF;collapsible=0;dropTarget=0;points=[[0,0.5],[1,0.5]];portConstraint=eastwest;top=0;left=0;right=0;bottom=0;" vertex="1" parent="gwSPfHCUQROc68bD6OqH-1">
          <mxGeometry y="305" width="220" height="35" as="geometry" />
        </mxCell>
        <mxCell id="gwSPfHCUQROc68bD6OqH-27" value="" style="shape=partialRectangle;connectable=0;fillColor=#99CCFF;top=0;left=0;bottom=0;right=0;editable=1;overflow=hidden;" vertex="1" parent="gwSPfHCUQROc68bD6OqH-26">
          <mxGeometry width="30" height="35" as="geometry">
            <mxRectangle width="30" height="35" as="alternateBounds" />
          </mxGeometry>
        </mxCell>
        <mxCell id="gwSPfHCUQROc68bD6OqH-28" value="cus_addrs_l1" style="shape=partialRectangle;connectable=0;fillColor=#99CCFF;top=0;left=0;bottom=0;right=0;align=left;spacingLeft=6;overflow=hidden;" vertex="1" parent="gwSPfHCUQROc68bD6OqH-26">
          <mxGeometry x="30" width="190" height="35" as="geometry">
            <mxRectangle width="190" height="35" as="alternateBounds" />
          </mxGeometry>
        </mxCell>
        <mxCell id="gwSPfHCUQROc68bD6OqH-29" value="" style="shape=tableRow;horizontal=0;startSize=0;swimlaneHead=0;swimlaneBody=0;fillColor=#99CCFF;collapsible=0;dropTarget=0;points=[[0,0.5],[1,0.5]];portConstraint=eastwest;top=0;left=0;right=0;bottom=0;" vertex="1" parent="gwSPfHCUQROc68bD6OqH-1">
          <mxGeometry y="340" width="220" height="35" as="geometry" />
        </mxCell>
        <mxCell id="gwSPfHCUQROc68bD6OqH-30" value="" style="shape=partialRectangle;connectable=0;fillColor=#99CCFF;top=0;left=0;bottom=0;right=0;editable=1;overflow=hidden;" vertex="1" parent="gwSPfHCUQROc68bD6OqH-29">
          <mxGeometry width="30" height="35" as="geometry">
            <mxRectangle width="30" height="35" as="alternateBounds" />
          </mxGeometry>
        </mxCell>
        <mxCell id="gwSPfHCUQROc68bD6OqH-31" value="cus_addrs_l2" style="shape=partialRectangle;connectable=0;fillColor=#99CCFF;top=0;left=0;bottom=0;right=0;align=left;spacingLeft=6;overflow=hidden;" vertex="1" parent="gwSPfHCUQROc68bD6OqH-29">
          <mxGeometry x="30" width="190" height="35" as="geometry">
            <mxRectangle width="190" height="35" as="alternateBounds" />
          </mxGeometry>
        </mxCell>
        <mxCell id="gwSPfHCUQROc68bD6OqH-32" value="" style="shape=tableRow;horizontal=0;startSize=0;swimlaneHead=0;swimlaneBody=0;fillColor=#99CCFF;collapsible=0;dropTarget=0;points=[[0,0.5],[1,0.5]];portConstraint=eastwest;top=0;left=0;right=0;bottom=0;" vertex="1" parent="gwSPfHCUQROc68bD6OqH-1">
          <mxGeometry y="375" width="220" height="35" as="geometry" />
        </mxCell>
        <mxCell id="gwSPfHCUQROc68bD6OqH-33" value="" style="shape=partialRectangle;connectable=0;fillColor=#99CCFF;top=0;left=0;bottom=0;right=0;editable=1;overflow=hidden;" vertex="1" parent="gwSPfHCUQROc68bD6OqH-32">
          <mxGeometry width="30" height="35" as="geometry">
            <mxRectangle width="30" height="35" as="alternateBounds" />
          </mxGeometry>
        </mxCell>
        <mxCell id="gwSPfHCUQROc68bD6OqH-34" value="cus_addrs_city" style="shape=partialRectangle;connectable=0;fillColor=#99CCFF;top=0;left=0;bottom=0;right=0;align=left;spacingLeft=6;overflow=hidden;" vertex="1" parent="gwSPfHCUQROc68bD6OqH-32">
          <mxGeometry x="30" width="190" height="35" as="geometry">
            <mxRectangle width="190" height="35" as="alternateBounds" />
          </mxGeometry>
        </mxCell>
        <mxCell id="gwSPfHCUQROc68bD6OqH-35" value="" style="shape=tableRow;horizontal=0;startSize=0;swimlaneHead=0;swimlaneBody=0;fillColor=#99CCFF;collapsible=0;dropTarget=0;points=[[0,0.5],[1,0.5]];portConstraint=eastwest;top=0;left=0;right=0;bottom=0;" vertex="1" parent="gwSPfHCUQROc68bD6OqH-1">
          <mxGeometry y="410" width="220" height="35" as="geometry" />
        </mxCell>
        <mxCell id="gwSPfHCUQROc68bD6OqH-36" value="" style="shape=partialRectangle;connectable=0;fillColor=#99CCFF;top=0;left=0;bottom=0;right=0;editable=1;overflow=hidden;" vertex="1" parent="gwSPfHCUQROc68bD6OqH-35">
          <mxGeometry width="30" height="35" as="geometry">
            <mxRectangle width="30" height="35" as="alternateBounds" />
          </mxGeometry>
        </mxCell>
        <mxCell id="gwSPfHCUQROc68bD6OqH-37" value="cus_mship" style="shape=partialRectangle;connectable=0;fillColor=#99CCFF;top=0;left=0;bottom=0;right=0;align=left;spacingLeft=6;overflow=hidden;" vertex="1" parent="gwSPfHCUQROc68bD6OqH-35">
          <mxGeometry x="30" width="190" height="35" as="geometry">
            <mxRectangle width="190" height="35" as="alternateBounds" />
          </mxGeometry>
        </mxCell>
        <mxCell id="gwSPfHCUQROc68bD6OqH-38" value="" style="shape=tableRow;horizontal=0;startSize=0;swimlaneHead=0;swimlaneBody=0;fillColor=#99CCFF;collapsible=0;dropTarget=0;points=[[0,0.5],[1,0.5]];portConstraint=eastwest;top=0;left=0;right=0;bottom=0;" vertex="1" parent="gwSPfHCUQROc68bD6OqH-1">
          <mxGeometry y="445" width="220" height="35" as="geometry" />
        </mxCell>
        <mxCell id="gwSPfHCUQROc68bD6OqH-39" value="" style="shape=partialRectangle;connectable=0;fillColor=#99CCFF;top=0;left=0;bottom=0;right=0;editable=1;overflow=hidden;" vertex="1" parent="gwSPfHCUQROc68bD6OqH-38">
          <mxGeometry width="30" height="35" as="geometry">
            <mxRectangle width="30" height="35" as="alternateBounds" />
          </mxGeometry>
        </mxCell>
        <mxCell id="gwSPfHCUQROc68bD6OqH-40" value="cus_img" style="shape=partialRectangle;connectable=0;fillColor=#99CCFF;top=0;left=0;bottom=0;right=0;align=left;spacingLeft=6;overflow=hidden;" vertex="1" parent="gwSPfHCUQROc68bD6OqH-38">
          <mxGeometry x="30" width="190" height="35" as="geometry">
            <mxRectangle width="190" height="35" as="alternateBounds" />
          </mxGeometry>
        </mxCell>
        <mxCell id="gwSPfHCUQROc68bD6OqH-41" value="" style="shape=tableRow;horizontal=0;startSize=0;swimlaneHead=0;swimlaneBody=0;fillColor=#99CCFF;collapsible=0;dropTarget=0;points=[[0,0.5],[1,0.5]];portConstraint=eastwest;top=0;left=0;right=0;bottom=0;" vertex="1" parent="gwSPfHCUQROc68bD6OqH-1">
          <mxGeometry y="480" width="220" height="35" as="geometry" />
        </mxCell>
        <mxCell id="gwSPfHCUQROc68bD6OqH-42" value="" style="shape=partialRectangle;connectable=0;fillColor=#99CCFF;top=0;left=0;bottom=0;right=0;editable=1;overflow=hidden;" vertex="1" parent="gwSPfHCUQROc68bD6OqH-41">
          <mxGeometry width="30" height="35" as="geometry">
            <mxRectangle width="30" height="35" as="alternateBounds" />
          </mxGeometry>
        </mxCell>
        <mxCell id="gwSPfHCUQROc68bD6OqH-43" value="cus_status" style="shape=partialRectangle;connectable=0;fillColor=#99CCFF;top=0;left=0;bottom=0;right=0;align=left;spacingLeft=6;overflow=hidden;" vertex="1" parent="gwSPfHCUQROc68bD6OqH-41">
          <mxGeometry x="30" width="190" height="35" as="geometry">
            <mxRectangle width="190" height="35" as="alternateBounds" />
          </mxGeometry>
        </mxCell>
        <mxCell id="gwSPfHCUQROc68bD6OqH-44" value="" style="shape=tableRow;horizontal=0;startSize=0;swimlaneHead=0;swimlaneBody=0;fillColor=#99CCFF;collapsible=0;dropTarget=0;points=[[0,0.5],[1,0.5]];portConstraint=eastwest;top=0;left=0;right=0;bottom=0;" vertex="1" parent="gwSPfHCUQROc68bD6OqH-1">
          <mxGeometry y="515" width="220" height="35" as="geometry" />
        </mxCell>
        <mxCell id="gwSPfHCUQROc68bD6OqH-45" value="" style="shape=partialRectangle;connectable=0;fillColor=#99CCFF;top=0;left=0;bottom=0;right=0;editable=1;overflow=hidden;" vertex="1" parent="gwSPfHCUQROc68bD6OqH-44">
          <mxGeometry width="30" height="35" as="geometry">
            <mxRectangle width="30" height="35" as="alternateBounds" />
          </mxGeometry>
        </mxCell>
        <mxCell id="gwSPfHCUQROc68bD6OqH-46" value="cart_id" style="shape=partialRectangle;connectable=0;fillColor=#99CCFF;top=0;left=0;bottom=0;right=0;align=left;spacingLeft=6;overflow=hidden;" vertex="1" parent="gwSPfHCUQROc68bD6OqH-44">
          <mxGeometry x="30" width="190" height="35" as="geometry">
            <mxRectangle width="190" height="35" as="alternateBounds" />
          </mxGeometry>
        </mxCell>
        <mxCell id="gwSPfHCUQROc68bD6OqH-47" value="" style="shape=tableRow;horizontal=0;startSize=0;swimlaneHead=0;swimlaneBody=0;fillColor=#99CCFF;collapsible=0;dropTarget=0;points=[[0,0.5],[1,0.5]];portConstraint=eastwest;top=0;left=0;right=0;bottom=0;" vertex="1" parent="gwSPfHCUQROc68bD6OqH-1">
          <mxGeometry y="550" width="220" height="35" as="geometry" />
        </mxCell>
        <mxCell id="gwSPfHCUQROc68bD6OqH-48" value="" style="shape=partialRectangle;connectable=0;fillColor=#99CCFF;top=0;left=0;bottom=0;right=0;editable=1;overflow=hidden;" vertex="1" parent="gwSPfHCUQROc68bD6OqH-47">
          <mxGeometry width="30" height="35" as="geometry">
            <mxRectangle width="30" height="35" as="alternateBounds" />
          </mxGeometry>
        </mxCell>
        <mxCell id="gwSPfHCUQROc68bD6OqH-49" value="cus_log" style="shape=partialRectangle;connectable=0;fillColor=#99CCFF;top=0;left=0;bottom=0;right=0;align=left;spacingLeft=6;overflow=hidden;" vertex="1" parent="gwSPfHCUQROc68bD6OqH-47">
          <mxGeometry x="30" width="190" height="35" as="geometry">
            <mxRectangle width="190" height="35" as="alternateBounds" />
          </mxGeometry>
        </mxCell>
        <mxCell id="gwSPfHCUQROc68bD6OqH-50" value="" style="shape=tableRow;horizontal=0;startSize=0;swimlaneHead=0;swimlaneBody=0;fillColor=#99CCFF;collapsible=0;dropTarget=0;points=[[0,0.5],[1,0.5]];portConstraint=eastwest;top=0;left=0;right=0;bottom=0;" vertex="1" parent="gwSPfHCUQROc68bD6OqH-1">
          <mxGeometry y="585" width="220" height="35" as="geometry" />
        </mxCell>
        <mxCell id="gwSPfHCUQROc68bD6OqH-51" value="" style="shape=partialRectangle;connectable=0;fillColor=#99CCFF;top=0;left=0;bottom=0;right=0;editable=1;overflow=hidden;" vertex="1" parent="gwSPfHCUQROc68bD6OqH-50">
          <mxGeometry width="30" height="35" as="geometry">
            <mxRectangle width="30" height="35" as="alternateBounds" />
          </mxGeometry>
        </mxCell>
        <mxCell id="gwSPfHCUQROc68bD6OqH-52" value="cus_a_sys_log" style="shape=partialRectangle;connectable=0;fillColor=#99CCFF;top=0;left=0;bottom=0;right=0;align=left;spacingLeft=6;overflow=hidden;" vertex="1" parent="gwSPfHCUQROc68bD6OqH-50">
          <mxGeometry x="30" width="190" height="35" as="geometry">
            <mxRectangle width="190" height="35" as="alternateBounds" />
          </mxGeometry>
        </mxCell>
        <mxCell id="gwSPfHCUQROc68bD6OqH-53" value="" style="shape=tableRow;horizontal=0;startSize=0;swimlaneHead=0;swimlaneBody=0;fillColor=#99CCFF;collapsible=0;dropTarget=0;points=[[0,0.5],[1,0.5]];portConstraint=eastwest;top=0;left=0;right=0;bottom=0;" vertex="1" parent="gwSPfHCUQROc68bD6OqH-1">
          <mxGeometry y="620" width="220" height="35" as="geometry" />
        </mxCell>
        <mxCell id="gwSPfHCUQROc68bD6OqH-54" value="" style="shape=partialRectangle;connectable=0;fillColor=#99CCFF;top=0;left=0;bottom=0;right=0;editable=1;overflow=hidden;" vertex="1" parent="gwSPfHCUQROc68bD6OqH-53">
          <mxGeometry width="30" height="35" as="geometry">
            <mxRectangle width="30" height="35" as="alternateBounds" />
          </mxGeometry>
        </mxCell>
        <mxCell id="gwSPfHCUQROc68bD6OqH-55" value="cus_d_sys_log" style="shape=partialRectangle;connectable=0;fillColor=#99CCFF;top=0;left=0;bottom=0;right=0;align=left;spacingLeft=6;overflow=hidden;" vertex="1" parent="gwSPfHCUQROc68bD6OqH-53">
          <mxGeometry x="30" width="190" height="35" as="geometry">
            <mxRectangle width="190" height="35" as="alternateBounds" />
          </mxGeometry>
        </mxCell>
        <mxCell id="gwSPfHCUQROc68bD6OqH-56" value="Item" style="shape=table;startSize=30;container=1;collapsible=1;childLayout=tableLayout;fixedRows=1;rowLines=0;fontStyle=1;align=center;resizeLast=1;fillColor=#3EADFF;" vertex="1" parent="1">
          <mxGeometry x="1121" y="320" width="219" height="445" as="geometry">
            <mxRectangle x="1121" y="320" width="90" height="30" as="alternateBounds" />
          </mxGeometry>
        </mxCell>
        <mxCell id="gwSPfHCUQROc68bD6OqH-57" value="" style="shape=tableRow;horizontal=0;startSize=0;swimlaneHead=0;swimlaneBody=0;fillColor=none;collapsible=0;dropTarget=0;points=[[0,0.5],[1,0.5]];portConstraint=eastwest;top=0;left=0;right=0;bottom=1;" vertex="1" parent="gwSPfHCUQROc68bD6OqH-56">
          <mxGeometry y="30" width="219" height="30" as="geometry" />
        </mxCell>
        <mxCell id="gwSPfHCUQROc68bD6OqH-58" value="PK" style="shape=partialRectangle;connectable=0;fillColor=#3EADFF;top=0;left=0;bottom=0;right=0;fontStyle=1;overflow=hidden;" vertex="1" parent="gwSPfHCUQROc68bD6OqH-57">
          <mxGeometry width="30" height="30" as="geometry">
            <mxRectangle width="30" height="30" as="alternateBounds" />
          </mxGeometry>
        </mxCell>
        <mxCell id="gwSPfHCUQROc68bD6OqH-59" value="item_id" style="shape=partialRectangle;connectable=0;fillColor=#3EADFF;top=0;left=0;bottom=0;right=0;align=left;spacingLeft=6;fontStyle=5;overflow=hidden;" vertex="1" parent="gwSPfHCUQROc68bD6OqH-57">
          <mxGeometry x="30" width="189" height="30" as="geometry">
            <mxRectangle width="189" height="30" as="alternateBounds" />
          </mxGeometry>
        </mxCell>
        <mxCell id="gwSPfHCUQROc68bD6OqH-60" value="" style="shape=tableRow;horizontal=0;startSize=0;swimlaneHead=0;swimlaneBody=0;fillColor=none;collapsible=0;dropTarget=0;points=[[0,0.5],[1,0.5]];portConstraint=eastwest;top=0;left=0;right=0;bottom=0;" vertex="1" parent="gwSPfHCUQROc68bD6OqH-56">
          <mxGeometry y="60" width="219" height="35" as="geometry" />
        </mxCell>
        <mxCell id="gwSPfHCUQROc68bD6OqH-61" value="FK1" style="shape=partialRectangle;connectable=0;fillColor=#FFCC99;top=0;left=0;bottom=0;right=0;editable=1;overflow=hidden;" vertex="1" parent="gwSPfHCUQROc68bD6OqH-60">
          <mxGeometry width="30" height="35" as="geometry">
            <mxRectangle width="30" height="35" as="alternateBounds" />
          </mxGeometry>
        </mxCell>
        <mxCell id="gwSPfHCUQROc68bD6OqH-62" value="tag_name" style="shape=partialRectangle;connectable=0;fillColor=#FFCC99;top=0;left=0;bottom=0;right=0;align=left;spacingLeft=6;overflow=hidden;" vertex="1" parent="gwSPfHCUQROc68bD6OqH-60">
          <mxGeometry x="30" width="189" height="35" as="geometry">
            <mxRectangle width="189" height="35" as="alternateBounds" />
          </mxGeometry>
        </mxCell>
        <mxCell id="gwSPfHCUQROc68bD6OqH-63" value="" style="shape=tableRow;horizontal=0;startSize=0;swimlaneHead=0;swimlaneBody=0;fillColor=none;collapsible=0;dropTarget=0;points=[[0,0.5],[1,0.5]];portConstraint=eastwest;top=0;left=0;right=0;bottom=0;" vertex="1" parent="gwSPfHCUQROc68bD6OqH-56">
          <mxGeometry y="95" width="219" height="35" as="geometry" />
        </mxCell>
        <mxCell id="gwSPfHCUQROc68bD6OqH-64" value="FK2" style="shape=partialRectangle;connectable=0;fillColor=#FF9999;top=0;left=0;bottom=0;right=0;editable=1;overflow=hidden;" vertex="1" parent="gwSPfHCUQROc68bD6OqH-63">
          <mxGeometry width="30" height="35" as="geometry">
            <mxRectangle width="30" height="35" as="alternateBounds" />
          </mxGeometry>
        </mxCell>
        <mxCell id="gwSPfHCUQROc68bD6OqH-65" value="item_name" style="shape=partialRectangle;connectable=0;fillColor=#FF9999;top=0;left=0;bottom=0;right=0;align=left;spacingLeft=6;overflow=hidden;" vertex="1" parent="gwSPfHCUQROc68bD6OqH-63">
          <mxGeometry x="30" width="189" height="35" as="geometry">
            <mxRectangle width="189" height="35" as="alternateBounds" />
          </mxGeometry>
        </mxCell>
        <mxCell id="gwSPfHCUQROc68bD6OqH-66" value="" style="shape=tableRow;horizontal=0;startSize=0;swimlaneHead=0;swimlaneBody=0;fillColor=none;collapsible=0;dropTarget=0;points=[[0,0.5],[1,0.5]];portConstraint=eastwest;top=0;left=0;right=0;bottom=0;" vertex="1" parent="gwSPfHCUQROc68bD6OqH-56">
          <mxGeometry y="130" width="219" height="35" as="geometry" />
        </mxCell>
        <mxCell id="gwSPfHCUQROc68bD6OqH-67" value="" style="shape=partialRectangle;connectable=0;fillColor=#3EADFF;top=0;left=0;bottom=0;right=0;editable=1;overflow=hidden;" vertex="1" parent="gwSPfHCUQROc68bD6OqH-66">
          <mxGeometry width="30" height="35" as="geometry">
            <mxRectangle width="30" height="35" as="alternateBounds" />
          </mxGeometry>
        </mxCell>
        <mxCell id="gwSPfHCUQROc68bD6OqH-68" value="item_weight" style="shape=partialRectangle;connectable=0;fillColor=#3EADFF;top=0;left=0;bottom=0;right=0;align=left;spacingLeft=6;overflow=hidden;" vertex="1" parent="gwSPfHCUQROc68bD6OqH-66">
          <mxGeometry x="30" width="189" height="35" as="geometry">
            <mxRectangle width="189" height="35" as="alternateBounds" />
          </mxGeometry>
        </mxCell>
        <mxCell id="gwSPfHCUQROc68bD6OqH-69" value="" style="shape=tableRow;horizontal=0;startSize=0;swimlaneHead=0;swimlaneBody=0;fillColor=none;collapsible=0;dropTarget=0;points=[[0,0.5],[1,0.5]];portConstraint=eastwest;top=0;left=0;right=0;bottom=0;" vertex="1" parent="gwSPfHCUQROc68bD6OqH-56">
          <mxGeometry y="165" width="219" height="35" as="geometry" />
        </mxCell>
        <mxCell id="gwSPfHCUQROc68bD6OqH-70" value="" style="shape=partialRectangle;connectable=0;fillColor=#3EADFF;top=0;left=0;bottom=0;right=0;editable=1;overflow=hidden;" vertex="1" parent="gwSPfHCUQROc68bD6OqH-69">
          <mxGeometry width="30" height="35" as="geometry">
            <mxRectangle width="30" height="35" as="alternateBounds" />
          </mxGeometry>
        </mxCell>
        <mxCell id="gwSPfHCUQROc68bD6OqH-71" value="item_weight_unit" style="shape=partialRectangle;connectable=0;fillColor=#3EADFF;top=0;left=0;bottom=0;right=0;align=left;spacingLeft=6;overflow=hidden;" vertex="1" parent="gwSPfHCUQROc68bD6OqH-69">
          <mxGeometry x="30" width="189" height="35" as="geometry">
            <mxRectangle width="189" height="35" as="alternateBounds" />
          </mxGeometry>
        </mxCell>
        <mxCell id="gwSPfHCUQROc68bD6OqH-72" value="" style="shape=tableRow;horizontal=0;startSize=0;swimlaneHead=0;swimlaneBody=0;fillColor=none;collapsible=0;dropTarget=0;points=[[0,0.5],[1,0.5]];portConstraint=eastwest;top=0;left=0;right=0;bottom=0;" vertex="1" parent="gwSPfHCUQROc68bD6OqH-56">
          <mxGeometry y="200" width="219" height="35" as="geometry" />
        </mxCell>
        <mxCell id="gwSPfHCUQROc68bD6OqH-73" value="" style="shape=partialRectangle;connectable=0;fillColor=#3EADFF;top=0;left=0;bottom=0;right=0;editable=1;overflow=hidden;" vertex="1" parent="gwSPfHCUQROc68bD6OqH-72">
          <mxGeometry width="30" height="35" as="geometry">
            <mxRectangle width="30" height="35" as="alternateBounds" />
          </mxGeometry>
        </mxCell>
        <mxCell id="gwSPfHCUQROc68bD6OqH-74" value="item_desc" style="shape=partialRectangle;connectable=0;fillColor=#3EADFF;top=0;left=0;bottom=0;right=0;align=left;spacingLeft=6;overflow=hidden;" vertex="1" parent="gwSPfHCUQROc68bD6OqH-72">
          <mxGeometry x="30" width="189" height="35" as="geometry">
            <mxRectangle width="189" height="35" as="alternateBounds" />
          </mxGeometry>
        </mxCell>
        <mxCell id="gwSPfHCUQROc68bD6OqH-75" value="" style="shape=tableRow;horizontal=0;startSize=0;swimlaneHead=0;swimlaneBody=0;fillColor=none;collapsible=0;dropTarget=0;points=[[0,0.5],[1,0.5]];portConstraint=eastwest;top=0;left=0;right=0;bottom=0;" vertex="1" parent="gwSPfHCUQROc68bD6OqH-56">
          <mxGeometry y="235" width="219" height="35" as="geometry" />
        </mxCell>
        <mxCell id="gwSPfHCUQROc68bD6OqH-76" value="" style="shape=partialRectangle;connectable=0;fillColor=#3EADFF;top=0;left=0;bottom=0;right=0;editable=1;overflow=hidden;" vertex="1" parent="gwSPfHCUQROc68bD6OqH-75">
          <mxGeometry width="30" height="35" as="geometry">
            <mxRectangle width="30" height="35" as="alternateBounds" />
          </mxGeometry>
        </mxCell>
        <mxCell id="gwSPfHCUQROc68bD6OqH-77" value="item_size" style="shape=partialRectangle;connectable=0;fillColor=#3EADFF;top=0;left=0;bottom=0;right=0;align=left;spacingLeft=6;overflow=hidden;" vertex="1" parent="gwSPfHCUQROc68bD6OqH-75">
          <mxGeometry x="30" width="189" height="35" as="geometry">
            <mxRectangle width="189" height="35" as="alternateBounds" />
          </mxGeometry>
        </mxCell>
        <mxCell id="gwSPfHCUQROc68bD6OqH-78" value="" style="shape=tableRow;horizontal=0;startSize=0;swimlaneHead=0;swimlaneBody=0;fillColor=none;collapsible=0;dropTarget=0;points=[[0,0.5],[1,0.5]];portConstraint=eastwest;top=0;left=0;right=0;bottom=0;" vertex="1" parent="gwSPfHCUQROc68bD6OqH-56">
          <mxGeometry y="270" width="219" height="35" as="geometry" />
        </mxCell>
        <mxCell id="gwSPfHCUQROc68bD6OqH-79" value="" style="shape=partialRectangle;connectable=0;fillColor=#3EADFF;top=0;left=0;bottom=0;right=0;editable=1;overflow=hidden;" vertex="1" parent="gwSPfHCUQROc68bD6OqH-78">
          <mxGeometry width="30" height="35" as="geometry">
            <mxRectangle width="30" height="35" as="alternateBounds" />
          </mxGeometry>
        </mxCell>
        <mxCell id="gwSPfHCUQROc68bD6OqH-80" value="item_price" style="shape=partialRectangle;connectable=0;fillColor=#3EADFF;top=0;left=0;bottom=0;right=0;align=left;spacingLeft=6;overflow=hidden;" vertex="1" parent="gwSPfHCUQROc68bD6OqH-78">
          <mxGeometry x="30" width="189" height="35" as="geometry">
            <mxRectangle width="189" height="35" as="alternateBounds" />
          </mxGeometry>
        </mxCell>
        <mxCell id="gwSPfHCUQROc68bD6OqH-81" value="" style="shape=tableRow;horizontal=0;startSize=0;swimlaneHead=0;swimlaneBody=0;fillColor=none;collapsible=0;dropTarget=0;points=[[0,0.5],[1,0.5]];portConstraint=eastwest;top=0;left=0;right=0;bottom=0;" vertex="1" parent="gwSPfHCUQROc68bD6OqH-56">
          <mxGeometry y="305" width="219" height="35" as="geometry" />
        </mxCell>
        <mxCell id="gwSPfHCUQROc68bD6OqH-82" value="FK3" style="shape=partialRectangle;connectable=0;fillColor=#99CCFF;top=0;left=0;bottom=0;right=0;editable=1;overflow=hidden;" vertex="1" parent="gwSPfHCUQROc68bD6OqH-81">
          <mxGeometry width="30" height="35" as="geometry">
            <mxRectangle width="30" height="35" as="alternateBounds" />
          </mxGeometry>
        </mxCell>
        <mxCell id="gwSPfHCUQROc68bD6OqH-83" value="item_type" style="shape=partialRectangle;connectable=0;fillColor=#99CCFF;top=0;left=0;bottom=0;right=0;align=left;spacingLeft=6;overflow=hidden;" vertex="1" parent="gwSPfHCUQROc68bD6OqH-81">
          <mxGeometry x="30" width="189" height="35" as="geometry">
            <mxRectangle width="189" height="35" as="alternateBounds" />
          </mxGeometry>
        </mxCell>
        <mxCell id="gwSPfHCUQROc68bD6OqH-84" value="" style="shape=tableRow;horizontal=0;startSize=0;swimlaneHead=0;swimlaneBody=0;fillColor=none;collapsible=0;dropTarget=0;points=[[0,0.5],[1,0.5]];portConstraint=eastwest;top=0;left=0;right=0;bottom=0;" vertex="1" parent="gwSPfHCUQROc68bD6OqH-56">
          <mxGeometry y="340" width="219" height="35" as="geometry" />
        </mxCell>
        <mxCell id="gwSPfHCUQROc68bD6OqH-85" value="FK4" style="shape=partialRectangle;connectable=0;fillColor=#66FFB3;top=0;left=0;bottom=0;right=0;editable=1;overflow=hidden;" vertex="1" parent="gwSPfHCUQROc68bD6OqH-84">
          <mxGeometry width="30" height="35" as="geometry">
            <mxRectangle width="30" height="35" as="alternateBounds" />
          </mxGeometry>
        </mxCell>
        <mxCell id="gwSPfHCUQROc68bD6OqH-86" value="item_category" style="shape=partialRectangle;connectable=0;fillColor=#66FFB3;top=0;left=0;bottom=0;right=0;align=left;spacingLeft=6;overflow=hidden;" vertex="1" parent="gwSPfHCUQROc68bD6OqH-84">
          <mxGeometry x="30" width="189" height="35" as="geometry">
            <mxRectangle width="189" height="35" as="alternateBounds" />
          </mxGeometry>
        </mxCell>
        <mxCell id="gwSPfHCUQROc68bD6OqH-87" value="" style="shape=tableRow;horizontal=0;startSize=0;swimlaneHead=0;swimlaneBody=0;fillColor=none;collapsible=0;dropTarget=0;points=[[0,0.5],[1,0.5]];portConstraint=eastwest;top=0;left=0;right=0;bottom=0;" vertex="1" parent="gwSPfHCUQROc68bD6OqH-56">
          <mxGeometry y="375" width="219" height="35" as="geometry" />
        </mxCell>
        <mxCell id="gwSPfHCUQROc68bD6OqH-88" value="FK5" style="shape=partialRectangle;connectable=0;fillColor=#99FF99;top=0;left=0;bottom=0;right=0;editable=1;overflow=hidden;" vertex="1" parent="gwSPfHCUQROc68bD6OqH-87">
          <mxGeometry width="30" height="35" as="geometry">
            <mxRectangle width="30" height="35" as="alternateBounds" />
          </mxGeometry>
        </mxCell>
        <mxCell id="gwSPfHCUQROc68bD6OqH-89" value="offer_id" style="shape=partialRectangle;connectable=0;fillColor=#99FF99;top=0;left=0;bottom=0;right=0;align=left;spacingLeft=6;overflow=hidden;" vertex="1" parent="gwSPfHCUQROc68bD6OqH-87">
          <mxGeometry x="30" width="189" height="35" as="geometry">
            <mxRectangle width="189" height="35" as="alternateBounds" />
          </mxGeometry>
        </mxCell>
        <mxCell id="gwSPfHCUQROc68bD6OqH-90" value="" style="shape=tableRow;horizontal=0;startSize=0;swimlaneHead=0;swimlaneBody=0;fillColor=none;collapsible=0;dropTarget=0;points=[[0,0.5],[1,0.5]];portConstraint=eastwest;top=0;left=0;right=0;bottom=0;" vertex="1" parent="gwSPfHCUQROc68bD6OqH-56">
          <mxGeometry y="410" width="219" height="35" as="geometry" />
        </mxCell>
        <mxCell id="gwSPfHCUQROc68bD6OqH-91" value="FK6" style="shape=partialRectangle;connectable=0;fillColor=#FFF78C;top=0;left=0;bottom=0;right=0;editable=1;overflow=hidden;" vertex="1" parent="gwSPfHCUQROc68bD6OqH-90">
          <mxGeometry width="30" height="35" as="geometry">
            <mxRectangle width="30" height="35" as="alternateBounds" />
          </mxGeometry>
        </mxCell>
        <mxCell id="gwSPfHCUQROc68bD6OqH-92" value="stock_id" style="shape=partialRectangle;connectable=0;fillColor=#FFF78C;top=0;left=0;bottom=0;right=0;align=left;spacingLeft=6;overflow=hidden;" vertex="1" parent="gwSPfHCUQROc68bD6OqH-90">
          <mxGeometry x="30" width="189" height="35" as="geometry">
            <mxRectangle width="189" height="35" as="alternateBounds" />
          </mxGeometry>
        </mxCell>
        <mxCell id="gwSPfHCUQROc68bD6OqH-93" value="cus_payment" style="shape=table;startSize=30;container=1;collapsible=1;childLayout=tableLayout;fixedRows=1;rowLines=0;fontStyle=1;align=center;resizeLast=1;fillColor=#FF9999;perimeterSpacing=1;shadow=0;sketch=0;swimlaneLine=1;" vertex="1" parent="1">
          <mxGeometry x="250" y="-20" width="200" height="200" as="geometry">
            <mxRectangle x="590" y="80" width="90" height="30" as="alternateBounds" />
          </mxGeometry>
        </mxCell>
        <mxCell id="gwSPfHCUQROc68bD6OqH-94" value="" style="shape=tableRow;horizontal=0;startSize=0;swimlaneHead=0;swimlaneBody=0;fillColor=#FF9999;collapsible=0;dropTarget=0;points=[[0,0.5],[1,0.5]];portConstraint=eastwest;top=0;left=0;right=0;bottom=1;perimeterSpacing=1;shadow=0;sketch=0;swimlaneLine=1;" vertex="1" parent="gwSPfHCUQROc68bD6OqH-93">
          <mxGeometry y="30" width="200" height="30" as="geometry" />
        </mxCell>
        <mxCell id="gwSPfHCUQROc68bD6OqH-95" value="PK" style="shape=partialRectangle;connectable=0;fillColor=#FF9999;top=0;left=0;bottom=0;right=0;fontStyle=1;overflow=hidden;perimeterSpacing=1;shadow=0;sketch=0;swimlaneLine=1;" vertex="1" parent="gwSPfHCUQROc68bD6OqH-94">
          <mxGeometry width="30" height="30" as="geometry">
            <mxRectangle width="30" height="30" as="alternateBounds" />
          </mxGeometry>
        </mxCell>
        <mxCell id="gwSPfHCUQROc68bD6OqH-96" value="pay_id int NOT NULL" style="shape=partialRectangle;connectable=0;fillColor=#FF9999;top=0;left=0;bottom=0;right=0;align=left;spacingLeft=6;fontStyle=5;overflow=hidden;perimeterSpacing=1;shadow=0;sketch=0;swimlaneLine=1;" vertex="1" parent="gwSPfHCUQROc68bD6OqH-94">
          <mxGeometry x="30" width="170" height="30" as="geometry">
            <mxRectangle width="170" height="30" as="alternateBounds" />
          </mxGeometry>
        </mxCell>
        <mxCell id="gwSPfHCUQROc68bD6OqH-97" value="" style="shape=tableRow;horizontal=0;startSize=0;swimlaneHead=0;swimlaneBody=0;fillColor=#CC99FF;collapsible=0;dropTarget=0;points=[[0,0.5],[1,0.5]];portConstraint=eastwest;top=0;left=0;right=0;bottom=0;perimeterSpacing=1;shadow=0;sketch=0;swimlaneLine=1;" vertex="1" parent="gwSPfHCUQROc68bD6OqH-93">
          <mxGeometry y="60" width="200" height="35" as="geometry" />
        </mxCell>
        <mxCell id="gwSPfHCUQROc68bD6OqH-98" value="FK1" style="shape=partialRectangle;connectable=0;fillColor=#CC99FF;top=0;left=0;bottom=0;right=0;editable=1;overflow=hidden;perimeterSpacing=1;shadow=0;sketch=0;swimlaneLine=1;" vertex="1" parent="gwSPfHCUQROc68bD6OqH-97">
          <mxGeometry width="30" height="35" as="geometry">
            <mxRectangle width="30" height="35" as="alternateBounds" />
          </mxGeometry>
        </mxCell>
        <mxCell id="gwSPfHCUQROc68bD6OqH-99" value="order_id" style="shape=partialRectangle;connectable=0;fillColor=#CC99FF;top=0;left=0;bottom=0;right=0;align=left;spacingLeft=6;overflow=hidden;perimeterSpacing=1;shadow=0;sketch=0;swimlaneLine=1;" vertex="1" parent="gwSPfHCUQROc68bD6OqH-97">
          <mxGeometry x="30" width="170" height="35" as="geometry">
            <mxRectangle width="170" height="35" as="alternateBounds" />
          </mxGeometry>
        </mxCell>
        <mxCell id="gwSPfHCUQROc68bD6OqH-100" value="" style="shape=tableRow;horizontal=0;startSize=0;swimlaneHead=0;swimlaneBody=0;fillColor=#FF9999;collapsible=0;dropTarget=0;points=[[0,0.5],[1,0.5]];portConstraint=eastwest;top=0;left=0;right=0;bottom=0;perimeterSpacing=1;shadow=0;sketch=0;swimlaneLine=1;" vertex="1" parent="gwSPfHCUQROc68bD6OqH-93">
          <mxGeometry y="95" width="200" height="35" as="geometry" />
        </mxCell>
        <mxCell id="gwSPfHCUQROc68bD6OqH-101" value="FK3" style="shape=partialRectangle;connectable=0;fillColor=#FFCCE6;top=0;left=0;bottom=0;right=0;editable=1;overflow=hidden;perimeterSpacing=1;shadow=0;sketch=0;swimlaneLine=1;" vertex="1" parent="gwSPfHCUQROc68bD6OqH-100">
          <mxGeometry width="30" height="35" as="geometry">
            <mxRectangle width="30" height="35" as="alternateBounds" />
          </mxGeometry>
        </mxCell>
        <mxCell id="gwSPfHCUQROc68bD6OqH-102" value="pay_amount" style="shape=partialRectangle;connectable=0;fillColor=#FFCCE6;top=0;left=0;bottom=0;right=0;align=left;spacingLeft=6;overflow=hidden;perimeterSpacing=1;shadow=0;sketch=0;swimlaneLine=1;" vertex="1" parent="gwSPfHCUQROc68bD6OqH-100">
          <mxGeometry x="30" width="170" height="35" as="geometry">
            <mxRectangle width="170" height="35" as="alternateBounds" />
          </mxGeometry>
        </mxCell>
        <mxCell id="gwSPfHCUQROc68bD6OqH-103" value="" style="shape=tableRow;horizontal=0;startSize=0;swimlaneHead=0;swimlaneBody=0;fillColor=#FFCCE6;collapsible=0;dropTarget=0;points=[[0,0.5],[1,0.5]];portConstraint=eastwest;top=0;left=0;right=0;bottom=0;perimeterSpacing=1;shadow=0;sketch=0;swimlaneLine=1;" vertex="1" parent="gwSPfHCUQROc68bD6OqH-93">
          <mxGeometry y="130" width="200" height="35" as="geometry" />
        </mxCell>
        <mxCell id="gwSPfHCUQROc68bD6OqH-104" value="FK2" style="shape=partialRectangle;connectable=0;top=0;left=0;bottom=0;right=0;editable=1;overflow=hidden;perimeterSpacing=1;shadow=0;sketch=1;swimlaneLine=1;fillColor=#FFC1C1;fillStyle=solid;" vertex="1" parent="gwSPfHCUQROc68bD6OqH-103">
          <mxGeometry width="30" height="35" as="geometry">
            <mxRectangle width="30" height="35" as="alternateBounds" />
          </mxGeometry>
        </mxCell>
        <mxCell id="gwSPfHCUQROc68bD6OqH-105" value="pay_type" style="shape=partialRectangle;connectable=0;top=0;left=0;bottom=0;right=0;align=left;spacingLeft=6;overflow=hidden;perimeterSpacing=1;shadow=0;sketch=1;swimlaneLine=1;fillColor=#FFC1C1;fillStyle=solid;" vertex="1" parent="gwSPfHCUQROc68bD6OqH-103">
          <mxGeometry x="30" width="170" height="35" as="geometry">
            <mxRectangle width="170" height="35" as="alternateBounds" />
          </mxGeometry>
        </mxCell>
        <mxCell id="gwSPfHCUQROc68bD6OqH-106" value="" style="shape=tableRow;horizontal=0;startSize=0;swimlaneHead=0;swimlaneBody=0;fillColor=#FF9999;collapsible=0;dropTarget=0;points=[[0,0.5],[1,0.5]];portConstraint=eastwest;top=0;left=0;right=0;bottom=0;perimeterSpacing=1;shadow=0;sketch=0;swimlaneLine=1;" vertex="1" parent="gwSPfHCUQROc68bD6OqH-93">
          <mxGeometry y="165" width="200" height="35" as="geometry" />
        </mxCell>
        <mxCell id="gwSPfHCUQROc68bD6OqH-107" value="FK4" style="shape=partialRectangle;connectable=0;fillColor=#FFE6CC;top=0;left=0;bottom=0;right=0;editable=1;overflow=hidden;perimeterSpacing=1;shadow=0;sketch=0;swimlaneLine=1;" vertex="1" parent="gwSPfHCUQROc68bD6OqH-106">
          <mxGeometry width="30" height="35" as="geometry">
            <mxRectangle width="30" height="35" as="alternateBounds" />
          </mxGeometry>
        </mxCell>
        <mxCell id="gwSPfHCUQROc68bD6OqH-108" value="pay_status" style="shape=partialRectangle;connectable=0;fillColor=#FFE6CC;top=0;left=0;bottom=0;right=0;align=left;spacingLeft=6;overflow=hidden;perimeterSpacing=1;shadow=0;sketch=0;swimlaneLine=1;" vertex="1" parent="gwSPfHCUQROc68bD6OqH-106">
          <mxGeometry x="30" width="170" height="35" as="geometry">
            <mxRectangle width="170" height="35" as="alternateBounds" />
          </mxGeometry>
        </mxCell>
        <mxCell id="gwSPfHCUQROc68bD6OqH-109" value="cus_order" style="shape=table;startSize=30;container=1;collapsible=1;childLayout=tableLayout;fixedRows=1;rowLines=0;fontStyle=1;align=center;resizeLast=1;fillColor=#FBFEC7;" vertex="1" parent="1">
          <mxGeometry x="560" y="150" width="200" height="270" as="geometry">
            <mxRectangle x="840" y="560" width="90" height="30" as="alternateBounds" />
          </mxGeometry>
        </mxCell>
        <mxCell id="gwSPfHCUQROc68bD6OqH-110" value="" style="shape=tableRow;horizontal=0;startSize=0;swimlaneHead=0;swimlaneBody=0;fillColor=#FBFEC7;collapsible=0;dropTarget=0;points=[[0,0.5],[1,0.5]];portConstraint=eastwest;top=0;left=0;right=0;bottom=1;" vertex="1" parent="gwSPfHCUQROc68bD6OqH-109">
          <mxGeometry y="30" width="200" height="30" as="geometry" />
        </mxCell>
        <mxCell id="gwSPfHCUQROc68bD6OqH-111" value="PK" style="shape=partialRectangle;connectable=0;fillColor=#FBFEC7;top=0;left=0;bottom=0;right=0;fontStyle=1;overflow=hidden;" vertex="1" parent="gwSPfHCUQROc68bD6OqH-110">
          <mxGeometry width="30" height="30" as="geometry">
            <mxRectangle width="30" height="30" as="alternateBounds" />
          </mxGeometry>
        </mxCell>
        <mxCell id="gwSPfHCUQROc68bD6OqH-112" value="order_id int NOT NULL" style="shape=partialRectangle;connectable=0;fillColor=#FBFEC7;top=0;left=0;bottom=0;right=0;align=left;spacingLeft=6;fontStyle=5;overflow=hidden;" vertex="1" parent="gwSPfHCUQROc68bD6OqH-110">
          <mxGeometry x="30" width="170" height="30" as="geometry">
            <mxRectangle width="170" height="30" as="alternateBounds" />
          </mxGeometry>
        </mxCell>
        <mxCell id="gwSPfHCUQROc68bD6OqH-113" value="" style="shape=tableRow;horizontal=0;startSize=0;swimlaneHead=0;swimlaneBody=0;fillColor=#FBFEC7;collapsible=0;dropTarget=0;points=[[0,0.5],[1,0.5]];portConstraint=eastwest;top=0;left=0;right=0;bottom=0;" vertex="1" parent="gwSPfHCUQROc68bD6OqH-109">
          <mxGeometry y="60" width="200" height="35" as="geometry" />
        </mxCell>
        <mxCell id="gwSPfHCUQROc68bD6OqH-114" value="" style="shape=partialRectangle;connectable=0;fillColor=#FBFEC7;top=0;left=0;bottom=0;right=0;editable=1;overflow=hidden;" vertex="1" parent="gwSPfHCUQROc68bD6OqH-113">
          <mxGeometry width="30" height="35" as="geometry">
            <mxRectangle width="30" height="35" as="alternateBounds" />
          </mxGeometry>
        </mxCell>
        <mxCell id="gwSPfHCUQROc68bD6OqH-115" value="cus_id" style="shape=partialRectangle;connectable=0;fillColor=#FBFEC7;top=0;left=0;bottom=0;right=0;align=left;spacingLeft=6;overflow=hidden;" vertex="1" parent="gwSPfHCUQROc68bD6OqH-113">
          <mxGeometry x="30" width="170" height="35" as="geometry">
            <mxRectangle width="170" height="35" as="alternateBounds" />
          </mxGeometry>
        </mxCell>
        <mxCell id="gwSPfHCUQROc68bD6OqH-116" value="" style="shape=tableRow;horizontal=0;startSize=0;swimlaneHead=0;swimlaneBody=0;fillColor=#FBFEC7;collapsible=0;dropTarget=0;points=[[0,0.5],[1,0.5]];portConstraint=eastwest;top=0;left=0;right=0;bottom=0;" vertex="1" parent="gwSPfHCUQROc68bD6OqH-109">
          <mxGeometry y="95" width="200" height="35" as="geometry" />
        </mxCell>
        <mxCell id="gwSPfHCUQROc68bD6OqH-117" value="" style="shape=partialRectangle;connectable=0;fillColor=#FBFEC7;top=0;left=0;bottom=0;right=0;editable=1;overflow=hidden;" vertex="1" parent="gwSPfHCUQROc68bD6OqH-116">
          <mxGeometry width="30" height="35" as="geometry">
            <mxRectangle width="30" height="35" as="alternateBounds" />
          </mxGeometry>
        </mxCell>
        <mxCell id="gwSPfHCUQROc68bD6OqH-118" value="emp_batch_id" style="shape=partialRectangle;connectable=0;fillColor=#FBFEC7;top=0;left=0;bottom=0;right=0;align=left;spacingLeft=6;overflow=hidden;" vertex="1" parent="gwSPfHCUQROc68bD6OqH-116">
          <mxGeometry x="30" width="170" height="35" as="geometry">
            <mxRectangle width="170" height="35" as="alternateBounds" />
          </mxGeometry>
        </mxCell>
        <mxCell id="gwSPfHCUQROc68bD6OqH-119" value="" style="shape=tableRow;horizontal=0;startSize=0;swimlaneHead=0;swimlaneBody=0;fillColor=#E6FFCC;collapsible=0;dropTarget=0;points=[[0,0.5],[1,0.5]];portConstraint=eastwest;top=0;left=0;right=0;bottom=0;" vertex="1" parent="gwSPfHCUQROc68bD6OqH-109">
          <mxGeometry y="130" width="200" height="35" as="geometry" />
        </mxCell>
        <mxCell id="gwSPfHCUQROc68bD6OqH-120" value="" style="shape=partialRectangle;connectable=0;fillColor=#FBFEC7;top=0;left=0;bottom=0;right=0;editable=1;overflow=hidden;" vertex="1" parent="gwSPfHCUQROc68bD6OqH-119">
          <mxGeometry width="30" height="35" as="geometry">
            <mxRectangle width="30" height="35" as="alternateBounds" />
          </mxGeometry>
        </mxCell>
        <mxCell id="gwSPfHCUQROc68bD6OqH-121" value="total_amount" style="shape=partialRectangle;connectable=0;fillColor=#FBFEC7;top=0;left=0;bottom=0;right=0;align=left;spacingLeft=6;overflow=hidden;" vertex="1" parent="gwSPfHCUQROc68bD6OqH-119">
          <mxGeometry x="30" width="170" height="35" as="geometry">
            <mxRectangle width="170" height="35" as="alternateBounds" />
          </mxGeometry>
        </mxCell>
        <mxCell id="gwSPfHCUQROc68bD6OqH-122" value="" style="shape=tableRow;horizontal=0;startSize=0;swimlaneHead=0;swimlaneBody=0;fillColor=#E6FFCC;collapsible=0;dropTarget=0;points=[[0,0.5],[1,0.5]];portConstraint=eastwest;top=0;left=0;right=0;bottom=0;" vertex="1" parent="gwSPfHCUQROc68bD6OqH-109">
          <mxGeometry y="165" width="200" height="35" as="geometry" />
        </mxCell>
        <mxCell id="gwSPfHCUQROc68bD6OqH-123" value="FK1" style="shape=partialRectangle;connectable=0;fillColor=#7CD9F8;top=0;left=0;bottom=0;right=0;editable=1;overflow=hidden;strokeColor=#d79b00;" vertex="1" parent="gwSPfHCUQROc68bD6OqH-122">
          <mxGeometry width="30" height="35" as="geometry">
            <mxRectangle width="30" height="35" as="alternateBounds" />
          </mxGeometry>
        </mxCell>
        <mxCell id="gwSPfHCUQROc68bD6OqH-124" value="order_date" style="shape=partialRectangle;connectable=0;fillColor=#7CD9F8;top=0;left=0;bottom=0;right=0;align=left;spacingLeft=6;overflow=hidden;strokeColor=#d79b00;" vertex="1" parent="gwSPfHCUQROc68bD6OqH-122">
          <mxGeometry x="30" width="170" height="35" as="geometry">
            <mxRectangle width="170" height="35" as="alternateBounds" />
          </mxGeometry>
        </mxCell>
        <mxCell id="gwSPfHCUQROc68bD6OqH-125" value="" style="shape=tableRow;horizontal=0;startSize=0;swimlaneHead=0;swimlaneBody=0;fillColor=#E6FFCC;collapsible=0;dropTarget=0;points=[[0,0.5],[1,0.5]];portConstraint=eastwest;top=0;left=0;right=0;bottom=0;" vertex="1" parent="gwSPfHCUQROc68bD6OqH-109">
          <mxGeometry y="200" width="200" height="35" as="geometry" />
        </mxCell>
        <mxCell id="gwSPfHCUQROc68bD6OqH-126" value="FK2" style="shape=partialRectangle;connectable=0;fillColor=#BDD7FD;top=0;left=0;bottom=0;right=0;editable=1;overflow=hidden;strokeColor=#d79b00;" vertex="1" parent="gwSPfHCUQROc68bD6OqH-125">
          <mxGeometry width="30" height="35" as="geometry">
            <mxRectangle width="30" height="35" as="alternateBounds" />
          </mxGeometry>
        </mxCell>
        <mxCell id="gwSPfHCUQROc68bD6OqH-127" value="order_type" style="shape=partialRectangle;connectable=0;fillColor=#BDD7FD;top=0;left=0;bottom=0;right=0;align=left;spacingLeft=6;overflow=hidden;strokeColor=#d79b00;" vertex="1" parent="gwSPfHCUQROc68bD6OqH-125">
          <mxGeometry x="30" width="170" height="35" as="geometry">
            <mxRectangle width="170" height="35" as="alternateBounds" />
          </mxGeometry>
        </mxCell>
        <mxCell id="gwSPfHCUQROc68bD6OqH-128" value="" style="shape=tableRow;horizontal=0;startSize=0;swimlaneHead=0;swimlaneBody=0;fillColor=#E6FFCC;collapsible=0;dropTarget=0;points=[[0,0.5],[1,0.5]];portConstraint=eastwest;top=0;left=0;right=0;bottom=0;" vertex="1" parent="gwSPfHCUQROc68bD6OqH-109">
          <mxGeometry y="235" width="200" height="35" as="geometry" />
        </mxCell>
        <mxCell id="gwSPfHCUQROc68bD6OqH-129" value="FK2" style="shape=partialRectangle;connectable=0;fillColor=#BDD7FD;top=0;left=0;bottom=0;right=0;editable=1;overflow=hidden;strokeColor=#d79b00;" vertex="1" parent="gwSPfHCUQROc68bD6OqH-128">
          <mxGeometry width="30" height="35" as="geometry">
            <mxRectangle width="30" height="35" as="alternateBounds" />
          </mxGeometry>
        </mxCell>
        <mxCell id="gwSPfHCUQROc68bD6OqH-130" value="order_status" style="shape=partialRectangle;connectable=0;fillColor=#BDD7FD;top=0;left=0;bottom=0;right=0;align=left;spacingLeft=6;overflow=hidden;strokeColor=#d79b00;" vertex="1" parent="gwSPfHCUQROc68bD6OqH-128">
          <mxGeometry x="30" width="170" height="35" as="geometry">
            <mxRectangle width="170" height="35" as="alternateBounds" />
          </mxGeometry>
        </mxCell>
        <mxCell id="gwSPfHCUQROc68bD6OqH-131" value="cus_checkout" style="shape=table;startSize=30;container=1;collapsible=1;childLayout=tableLayout;fixedRows=1;rowLines=0;fontStyle=1;align=center;resizeLast=1;fillColor=#99FF99;" vertex="1" parent="1">
          <mxGeometry x="1120" y="800" width="220" height="270" as="geometry">
            <mxRectangle x="570" y="363" width="90" height="30" as="alternateBounds" />
          </mxGeometry>
        </mxCell>
        <mxCell id="gwSPfHCUQROc68bD6OqH-132" value="" style="shape=tableRow;horizontal=0;startSize=0;swimlaneHead=0;swimlaneBody=0;fillColor=#99FF99;collapsible=0;dropTarget=0;points=[[0,0.5],[1,0.5]];portConstraint=eastwest;top=0;left=0;right=0;bottom=1;" vertex="1" parent="gwSPfHCUQROc68bD6OqH-131">
          <mxGeometry y="30" width="220" height="30" as="geometry" />
        </mxCell>
        <mxCell id="gwSPfHCUQROc68bD6OqH-133" value="PK" style="shape=partialRectangle;connectable=0;fillColor=#99FF99;top=0;left=0;bottom=0;right=0;fontStyle=1;overflow=hidden;" vertex="1" parent="gwSPfHCUQROc68bD6OqH-132">
          <mxGeometry width="30" height="30" as="geometry">
            <mxRectangle width="30" height="30" as="alternateBounds" />
          </mxGeometry>
        </mxCell>
        <mxCell id="gwSPfHCUQROc68bD6OqH-134" value="temp_id int NOT NULL" style="shape=partialRectangle;connectable=0;fillColor=#99FF99;top=0;left=0;bottom=0;right=0;align=left;spacingLeft=6;fontStyle=5;overflow=hidden;" vertex="1" parent="gwSPfHCUQROc68bD6OqH-132">
          <mxGeometry x="30" width="190" height="30" as="geometry">
            <mxRectangle width="190" height="30" as="alternateBounds" />
          </mxGeometry>
        </mxCell>
        <mxCell id="gwSPfHCUQROc68bD6OqH-135" value="" style="shape=tableRow;horizontal=0;startSize=0;swimlaneHead=0;swimlaneBody=0;fillColor=#99FF99;collapsible=0;dropTarget=0;points=[[0,0.5],[1,0.5]];portConstraint=eastwest;top=0;left=0;right=0;bottom=0;" vertex="1" parent="gwSPfHCUQROc68bD6OqH-131">
          <mxGeometry y="60" width="220" height="35" as="geometry" />
        </mxCell>
        <mxCell id="gwSPfHCUQROc68bD6OqH-136" value="" style="shape=partialRectangle;connectable=0;fillColor=#99FF99;top=0;left=0;bottom=0;right=0;editable=1;overflow=hidden;" vertex="1" parent="gwSPfHCUQROc68bD6OqH-135">
          <mxGeometry width="30" height="35" as="geometry">
            <mxRectangle width="30" height="35" as="alternateBounds" />
          </mxGeometry>
        </mxCell>
        <mxCell id="gwSPfHCUQROc68bD6OqH-137" value="cus_id" style="shape=partialRectangle;connectable=0;fillColor=#99FF99;top=0;left=0;bottom=0;right=0;align=left;spacingLeft=6;overflow=hidden;" vertex="1" parent="gwSPfHCUQROc68bD6OqH-135">
          <mxGeometry x="30" width="190" height="35" as="geometry">
            <mxRectangle width="190" height="35" as="alternateBounds" />
          </mxGeometry>
        </mxCell>
        <mxCell id="gwSPfHCUQROc68bD6OqH-138" value="" style="shape=tableRow;horizontal=0;startSize=0;swimlaneHead=0;swimlaneBody=0;fillColor=#99FF99;collapsible=0;dropTarget=0;points=[[0,0.5],[1,0.5]];portConstraint=eastwest;top=0;left=0;right=0;bottom=0;" vertex="1" parent="gwSPfHCUQROc68bD6OqH-131">
          <mxGeometry y="95" width="220" height="35" as="geometry" />
        </mxCell>
        <mxCell id="gwSPfHCUQROc68bD6OqH-139" value="" style="shape=partialRectangle;connectable=0;fillColor=#99FF99;top=0;left=0;bottom=0;right=0;editable=1;overflow=hidden;" vertex="1" parent="gwSPfHCUQROc68bD6OqH-138">
          <mxGeometry width="30" height="35" as="geometry">
            <mxRectangle width="30" height="35" as="alternateBounds" />
          </mxGeometry>
        </mxCell>
        <mxCell id="gwSPfHCUQROc68bD6OqH-140" value="item_id" style="shape=partialRectangle;connectable=0;fillColor=#99FF99;top=0;left=0;bottom=0;right=0;align=left;spacingLeft=6;overflow=hidden;" vertex="1" parent="gwSPfHCUQROc68bD6OqH-138">
          <mxGeometry x="30" width="190" height="35" as="geometry">
            <mxRectangle width="190" height="35" as="alternateBounds" />
          </mxGeometry>
        </mxCell>
        <mxCell id="gwSPfHCUQROc68bD6OqH-141" value="" style="shape=tableRow;horizontal=0;startSize=0;swimlaneHead=0;swimlaneBody=0;fillColor=#99FF99;collapsible=0;dropTarget=0;points=[[0,0.5],[1,0.5]];portConstraint=eastwest;top=0;left=0;right=0;bottom=0;" vertex="1" parent="gwSPfHCUQROc68bD6OqH-131">
          <mxGeometry y="130" width="220" height="35" as="geometry" />
        </mxCell>
        <mxCell id="gwSPfHCUQROc68bD6OqH-142" value="" style="shape=partialRectangle;connectable=0;fillColor=#99FF99;top=0;left=0;bottom=0;right=0;editable=1;overflow=hidden;" vertex="1" parent="gwSPfHCUQROc68bD6OqH-141">
          <mxGeometry width="30" height="35" as="geometry">
            <mxRectangle width="30" height="35" as="alternateBounds" />
          </mxGeometry>
        </mxCell>
        <mxCell id="gwSPfHCUQROc68bD6OqH-143" value="item_type" style="shape=partialRectangle;connectable=0;fillColor=#99FF99;top=0;left=0;bottom=0;right=0;align=left;spacingLeft=6;overflow=hidden;" vertex="1" parent="gwSPfHCUQROc68bD6OqH-141">
          <mxGeometry x="30" width="190" height="35" as="geometry">
            <mxRectangle width="190" height="35" as="alternateBounds" />
          </mxGeometry>
        </mxCell>
        <mxCell id="gwSPfHCUQROc68bD6OqH-144" value="" style="shape=tableRow;horizontal=0;startSize=0;swimlaneHead=0;swimlaneBody=0;fillColor=#99FF99;collapsible=0;dropTarget=0;points=[[0,0.5],[1,0.5]];portConstraint=eastwest;top=0;left=0;right=0;bottom=0;" vertex="1" parent="gwSPfHCUQROc68bD6OqH-131">
          <mxGeometry y="165" width="220" height="35" as="geometry" />
        </mxCell>
        <mxCell id="gwSPfHCUQROc68bD6OqH-145" value="" style="shape=partialRectangle;connectable=0;fillColor=#99FF99;top=0;left=0;bottom=0;right=0;editable=1;overflow=hidden;" vertex="1" parent="gwSPfHCUQROc68bD6OqH-144">
          <mxGeometry width="30" height="35" as="geometry">
            <mxRectangle width="30" height="35" as="alternateBounds" />
          </mxGeometry>
        </mxCell>
        <mxCell id="gwSPfHCUQROc68bD6OqH-146" value="item_category" style="shape=partialRectangle;connectable=0;fillColor=#99FF99;top=0;left=0;bottom=0;right=0;align=left;spacingLeft=6;overflow=hidden;" vertex="1" parent="gwSPfHCUQROc68bD6OqH-144">
          <mxGeometry x="30" width="190" height="35" as="geometry">
            <mxRectangle width="190" height="35" as="alternateBounds" />
          </mxGeometry>
        </mxCell>
        <mxCell id="gwSPfHCUQROc68bD6OqH-147" value="" style="shape=tableRow;horizontal=0;startSize=0;swimlaneHead=0;swimlaneBody=0;fillColor=#99FF99;collapsible=0;dropTarget=0;points=[[0,0.5],[1,0.5]];portConstraint=eastwest;top=0;left=0;right=0;bottom=0;" vertex="1" parent="gwSPfHCUQROc68bD6OqH-131">
          <mxGeometry y="200" width="220" height="35" as="geometry" />
        </mxCell>
        <mxCell id="gwSPfHCUQROc68bD6OqH-148" value="" style="shape=partialRectangle;connectable=0;fillColor=#99FF99;top=0;left=0;bottom=0;right=0;editable=1;overflow=hidden;" vertex="1" parent="gwSPfHCUQROc68bD6OqH-147">
          <mxGeometry width="30" height="35" as="geometry">
            <mxRectangle width="30" height="35" as="alternateBounds" />
          </mxGeometry>
        </mxCell>
        <mxCell id="gwSPfHCUQROc68bD6OqH-149" value="delv_id" style="shape=partialRectangle;connectable=0;fillColor=#99FF99;top=0;left=0;bottom=0;right=0;align=left;spacingLeft=6;overflow=hidden;" vertex="1" parent="gwSPfHCUQROc68bD6OqH-147">
          <mxGeometry x="30" width="190" height="35" as="geometry">
            <mxRectangle width="190" height="35" as="alternateBounds" />
          </mxGeometry>
        </mxCell>
        <mxCell id="gwSPfHCUQROc68bD6OqH-150" value="" style="shape=tableRow;horizontal=0;startSize=0;swimlaneHead=0;swimlaneBody=0;fillColor=#99FF99;collapsible=0;dropTarget=0;points=[[0,0.5],[1,0.5]];portConstraint=eastwest;top=0;left=0;right=0;bottom=0;" vertex="1" parent="gwSPfHCUQROc68bD6OqH-131">
          <mxGeometry y="235" width="220" height="35" as="geometry" />
        </mxCell>
        <mxCell id="gwSPfHCUQROc68bD6OqH-151" value="" style="shape=partialRectangle;connectable=0;fillColor=#99FF99;top=0;left=0;bottom=0;right=0;editable=1;overflow=hidden;" vertex="1" parent="gwSPfHCUQROc68bD6OqH-150">
          <mxGeometry width="30" height="35" as="geometry">
            <mxRectangle width="30" height="35" as="alternateBounds" />
          </mxGeometry>
        </mxCell>
        <mxCell id="gwSPfHCUQROc68bD6OqH-152" value="qnty" style="shape=partialRectangle;connectable=0;fillColor=#99FF99;top=0;left=0;bottom=0;right=0;align=left;spacingLeft=6;overflow=hidden;" vertex="1" parent="gwSPfHCUQROc68bD6OqH-150">
          <mxGeometry x="30" width="190" height="35" as="geometry">
            <mxRectangle width="190" height="35" as="alternateBounds" />
          </mxGeometry>
        </mxCell>
        <mxCell id="gwSPfHCUQROc68bD6OqH-153" value="cus_wishlist" style="shape=table;startSize=30;container=1;collapsible=1;childLayout=tableLayout;fixedRows=1;rowLines=0;fontStyle=1;align=center;resizeLast=1;fillColor=#FFE6CC;" vertex="1" parent="1">
          <mxGeometry x="1400" y="40" width="200" height="130" as="geometry">
            <mxRectangle x="290" y="38" width="90" height="30" as="alternateBounds" />
          </mxGeometry>
        </mxCell>
        <mxCell id="gwSPfHCUQROc68bD6OqH-154" value="" style="shape=tableRow;horizontal=0;startSize=0;swimlaneHead=0;swimlaneBody=0;fillColor=#FFE6CC;collapsible=0;dropTarget=0;points=[[0,0.5],[1,0.5]];portConstraint=eastwest;top=0;left=0;right=0;bottom=1;" vertex="1" parent="gwSPfHCUQROc68bD6OqH-153">
          <mxGeometry y="30" width="200" height="30" as="geometry" />
        </mxCell>
        <mxCell id="gwSPfHCUQROc68bD6OqH-155" value="PK" style="shape=partialRectangle;connectable=0;fillColor=#FFE6CC;top=0;left=0;bottom=0;right=0;fontStyle=1;overflow=hidden;" vertex="1" parent="gwSPfHCUQROc68bD6OqH-154">
          <mxGeometry width="30" height="30" as="geometry">
            <mxRectangle width="30" height="30" as="alternateBounds" />
          </mxGeometry>
        </mxCell>
        <mxCell id="gwSPfHCUQROc68bD6OqH-156" value="wishlist_id int NOT NULL" style="shape=partialRectangle;connectable=0;fillColor=#FFE6CC;top=0;left=0;bottom=0;right=0;align=left;spacingLeft=6;fontStyle=5;overflow=hidden;" vertex="1" parent="gwSPfHCUQROc68bD6OqH-154">
          <mxGeometry x="30" width="170" height="30" as="geometry">
            <mxRectangle width="170" height="30" as="alternateBounds" />
          </mxGeometry>
        </mxCell>
        <mxCell id="gwSPfHCUQROc68bD6OqH-157" value="" style="shape=tableRow;horizontal=0;startSize=0;swimlaneHead=0;swimlaneBody=0;fillColor=#FFE6CC;collapsible=0;dropTarget=0;points=[[0,0.5],[1,0.5]];portConstraint=eastwest;top=0;left=0;right=0;bottom=0;" vertex="1" parent="gwSPfHCUQROc68bD6OqH-153">
          <mxGeometry y="60" width="200" height="35" as="geometry" />
        </mxCell>
        <mxCell id="gwSPfHCUQROc68bD6OqH-158" value="" style="shape=partialRectangle;connectable=0;fillColor=#FFE6CC;top=0;left=0;bottom=0;right=0;editable=1;overflow=hidden;" vertex="1" parent="gwSPfHCUQROc68bD6OqH-157">
          <mxGeometry width="30" height="35" as="geometry">
            <mxRectangle width="30" height="35" as="alternateBounds" />
          </mxGeometry>
        </mxCell>
        <mxCell id="gwSPfHCUQROc68bD6OqH-159" value="cus_id" style="shape=partialRectangle;connectable=0;fillColor=#FFE6CC;top=0;left=0;bottom=0;right=0;align=left;spacingLeft=6;overflow=hidden;" vertex="1" parent="gwSPfHCUQROc68bD6OqH-157">
          <mxGeometry x="30" width="170" height="35" as="geometry">
            <mxRectangle width="170" height="35" as="alternateBounds" />
          </mxGeometry>
        </mxCell>
        <mxCell id="gwSPfHCUQROc68bD6OqH-160" value="" style="shape=tableRow;horizontal=0;startSize=0;swimlaneHead=0;swimlaneBody=0;fillColor=#FFE6CC;collapsible=0;dropTarget=0;points=[[0,0.5],[1,0.5]];portConstraint=eastwest;top=0;left=0;right=0;bottom=0;" vertex="1" parent="gwSPfHCUQROc68bD6OqH-153">
          <mxGeometry y="95" width="200" height="35" as="geometry" />
        </mxCell>
        <mxCell id="gwSPfHCUQROc68bD6OqH-161" value="" style="shape=partialRectangle;connectable=0;fillColor=#FFE6CC;top=0;left=0;bottom=0;right=0;editable=1;overflow=hidden;" vertex="1" parent="gwSPfHCUQROc68bD6OqH-160">
          <mxGeometry width="30" height="35" as="geometry">
            <mxRectangle width="30" height="35" as="alternateBounds" />
          </mxGeometry>
        </mxCell>
        <mxCell id="gwSPfHCUQROc68bD6OqH-162" value="item_id" style="shape=partialRectangle;connectable=0;fillColor=#FFE6CC;top=0;left=0;bottom=0;right=0;align=left;spacingLeft=6;overflow=hidden;" vertex="1" parent="gwSPfHCUQROc68bD6OqH-160">
          <mxGeometry x="30" width="170" height="35" as="geometry">
            <mxRectangle width="170" height="35" as="alternateBounds" />
          </mxGeometry>
        </mxCell>
        <mxCell id="gwSPfHCUQROc68bD6OqH-163" value="item_relatives_n_reccomends" style="shape=table;startSize=30;container=1;collapsible=1;childLayout=tableLayout;fixedRows=1;rowLines=0;fontStyle=1;align=center;resizeLast=1;fillColor=#FFCCCC;" vertex="1" parent="1">
          <mxGeometry x="1386" y="210" width="230" height="235" as="geometry">
            <mxRectangle x="290" y="315" width="90" height="30" as="alternateBounds" />
          </mxGeometry>
        </mxCell>
        <mxCell id="gwSPfHCUQROc68bD6OqH-164" value="" style="shape=tableRow;horizontal=0;startSize=0;swimlaneHead=0;swimlaneBody=0;fillColor=#FFC1C1;collapsible=0;dropTarget=0;points=[[0,0.5],[1,0.5]];portConstraint=eastwest;top=0;left=0;right=0;bottom=1;" vertex="1" parent="gwSPfHCUQROc68bD6OqH-163">
          <mxGeometry y="30" width="230" height="30" as="geometry" />
        </mxCell>
        <mxCell id="gwSPfHCUQROc68bD6OqH-165" value="PK" style="shape=partialRectangle;connectable=0;fillColor=#FFC1C1;top=0;left=0;bottom=0;right=0;fontStyle=1;overflow=hidden;" vertex="1" parent="gwSPfHCUQROc68bD6OqH-164">
          <mxGeometry width="30" height="30" as="geometry">
            <mxRectangle width="30" height="30" as="alternateBounds" />
          </mxGeometry>
        </mxCell>
        <mxCell id="gwSPfHCUQROc68bD6OqH-166" value="rel_n_rec_id int NOT NULL" style="shape=partialRectangle;connectable=0;fillColor=#FFC1C1;top=0;left=0;bottom=0;right=0;align=left;spacingLeft=6;fontStyle=5;overflow=hidden;" vertex="1" parent="gwSPfHCUQROc68bD6OqH-164">
          <mxGeometry x="30" width="200" height="30" as="geometry">
            <mxRectangle width="200" height="30" as="alternateBounds" />
          </mxGeometry>
        </mxCell>
        <mxCell id="gwSPfHCUQROc68bD6OqH-167" value="" style="shape=tableRow;horizontal=0;startSize=0;swimlaneHead=0;swimlaneBody=0;fillColor=#DCB9FF;collapsible=0;dropTarget=0;points=[[0,0.5],[1,0.5]];portConstraint=eastwest;top=0;left=0;right=0;bottom=0;" vertex="1" parent="gwSPfHCUQROc68bD6OqH-163">
          <mxGeometry y="60" width="230" height="35" as="geometry" />
        </mxCell>
        <mxCell id="gwSPfHCUQROc68bD6OqH-168" value="FK1" style="shape=partialRectangle;connectable=0;fillColor=#DCB9FF;top=0;left=0;bottom=0;right=0;editable=1;overflow=hidden;" vertex="1" parent="gwSPfHCUQROc68bD6OqH-167">
          <mxGeometry width="30" height="35" as="geometry">
            <mxRectangle width="30" height="35" as="alternateBounds" />
          </mxGeometry>
        </mxCell>
        <mxCell id="gwSPfHCUQROc68bD6OqH-169" value="item_id" style="shape=partialRectangle;connectable=0;fillColor=#DCB9FF;top=0;left=0;bottom=0;right=0;align=left;spacingLeft=6;overflow=hidden;" vertex="1" parent="gwSPfHCUQROc68bD6OqH-167">
          <mxGeometry x="30" width="200" height="35" as="geometry">
            <mxRectangle width="200" height="35" as="alternateBounds" />
          </mxGeometry>
        </mxCell>
        <mxCell id="gwSPfHCUQROc68bD6OqH-170" value="" style="shape=tableRow;horizontal=0;startSize=0;swimlaneHead=0;swimlaneBody=0;fillColor=#FFC1C1;collapsible=0;dropTarget=0;points=[[0,0.5],[1,0.5]];portConstraint=eastwest;top=0;left=0;right=0;bottom=0;" vertex="1" parent="gwSPfHCUQROc68bD6OqH-163">
          <mxGeometry y="95" width="230" height="35" as="geometry" />
        </mxCell>
        <mxCell id="gwSPfHCUQROc68bD6OqH-171" value="" style="shape=partialRectangle;connectable=0;fillColor=#FFC1C1;top=0;left=0;bottom=0;right=0;editable=1;overflow=hidden;" vertex="1" parent="gwSPfHCUQROc68bD6OqH-170">
          <mxGeometry width="30" height="35" as="geometry">
            <mxRectangle width="30" height="35" as="alternateBounds" />
          </mxGeometry>
        </mxCell>
        <mxCell id="gwSPfHCUQROc68bD6OqH-172" value="item_type" style="shape=partialRectangle;connectable=0;fillColor=#FFC1C1;top=0;left=0;bottom=0;right=0;align=left;spacingLeft=6;overflow=hidden;" vertex="1" parent="gwSPfHCUQROc68bD6OqH-170">
          <mxGeometry x="30" width="200" height="35" as="geometry">
            <mxRectangle width="200" height="35" as="alternateBounds" />
          </mxGeometry>
        </mxCell>
        <mxCell id="gwSPfHCUQROc68bD6OqH-173" value="" style="shape=tableRow;horizontal=0;startSize=0;swimlaneHead=0;swimlaneBody=0;fillColor=#FFC1C1;collapsible=0;dropTarget=0;points=[[0,0.5],[1,0.5]];portConstraint=eastwest;top=0;left=0;right=0;bottom=0;" vertex="1" parent="gwSPfHCUQROc68bD6OqH-163">
          <mxGeometry y="130" width="230" height="35" as="geometry" />
        </mxCell>
        <mxCell id="gwSPfHCUQROc68bD6OqH-174" value="" style="shape=partialRectangle;connectable=0;fillColor=#FFC1C1;top=0;left=0;bottom=0;right=0;editable=1;overflow=hidden;" vertex="1" parent="gwSPfHCUQROc68bD6OqH-173">
          <mxGeometry width="30" height="35" as="geometry">
            <mxRectangle width="30" height="35" as="alternateBounds" />
          </mxGeometry>
        </mxCell>
        <mxCell id="gwSPfHCUQROc68bD6OqH-175" value="item_category" style="shape=partialRectangle;connectable=0;fillColor=#FFC1C1;top=0;left=0;bottom=0;right=0;align=left;spacingLeft=6;overflow=hidden;" vertex="1" parent="gwSPfHCUQROc68bD6OqH-173">
          <mxGeometry x="30" width="200" height="35" as="geometry">
            <mxRectangle width="200" height="35" as="alternateBounds" />
          </mxGeometry>
        </mxCell>
        <mxCell id="gwSPfHCUQROc68bD6OqH-176" value="" style="shape=tableRow;horizontal=0;startSize=0;swimlaneHead=0;swimlaneBody=0;fillColor=#FFC1C1;collapsible=0;dropTarget=0;points=[[0,0.5],[1,0.5]];portConstraint=eastwest;top=0;left=0;right=0;bottom=0;" vertex="1" parent="gwSPfHCUQROc68bD6OqH-163">
          <mxGeometry y="165" width="230" height="35" as="geometry" />
        </mxCell>
        <mxCell id="gwSPfHCUQROc68bD6OqH-177" value="" style="shape=partialRectangle;connectable=0;fillColor=#FFC1C1;top=0;left=0;bottom=0;right=0;editable=1;overflow=hidden;" vertex="1" parent="gwSPfHCUQROc68bD6OqH-176">
          <mxGeometry width="30" height="35" as="geometry">
            <mxRectangle width="30" height="35" as="alternateBounds" />
          </mxGeometry>
        </mxCell>
        <mxCell id="gwSPfHCUQROc68bD6OqH-178" value="item_reltvs" style="shape=partialRectangle;connectable=0;fillColor=#FFC1C1;top=0;left=0;bottom=0;right=0;align=left;spacingLeft=6;overflow=hidden;" vertex="1" parent="gwSPfHCUQROc68bD6OqH-176">
          <mxGeometry x="30" width="200" height="35" as="geometry">
            <mxRectangle width="200" height="35" as="alternateBounds" />
          </mxGeometry>
        </mxCell>
        <mxCell id="gwSPfHCUQROc68bD6OqH-179" value="" style="shape=tableRow;horizontal=0;startSize=0;swimlaneHead=0;swimlaneBody=0;fillColor=#FFC1C1;collapsible=0;dropTarget=0;points=[[0,0.5],[1,0.5]];portConstraint=eastwest;top=0;left=0;right=0;bottom=0;" vertex="1" parent="gwSPfHCUQROc68bD6OqH-163">
          <mxGeometry y="200" width="230" height="35" as="geometry" />
        </mxCell>
        <mxCell id="gwSPfHCUQROc68bD6OqH-180" value="" style="shape=partialRectangle;connectable=0;fillColor=#FFC1C1;top=0;left=0;bottom=0;right=0;editable=1;overflow=hidden;" vertex="1" parent="gwSPfHCUQROc68bD6OqH-179">
          <mxGeometry width="30" height="35" as="geometry">
            <mxRectangle width="30" height="35" as="alternateBounds" />
          </mxGeometry>
        </mxCell>
        <mxCell id="gwSPfHCUQROc68bD6OqH-181" value="item_recmnds" style="shape=partialRectangle;connectable=0;fillColor=#FFC1C1;top=0;left=0;bottom=0;right=0;align=left;spacingLeft=6;overflow=hidden;" vertex="1" parent="gwSPfHCUQROc68bD6OqH-179">
          <mxGeometry x="30" width="200" height="35" as="geometry">
            <mxRectangle width="200" height="35" as="alternateBounds" />
          </mxGeometry>
        </mxCell>
        <mxCell id="gwSPfHCUQROc68bD6OqH-182" value="item_delivery" style="shape=table;startSize=30;container=1;collapsible=1;childLayout=tableLayout;fixedRows=1;rowLines=0;fontStyle=1;align=center;resizeLast=1;fillColor=#FFCCE6;" vertex="1" parent="1">
          <mxGeometry x="563" y="885" width="200" height="200" as="geometry">
            <mxRectangle x="290" y="640" width="90" height="30" as="alternateBounds" />
          </mxGeometry>
        </mxCell>
        <mxCell id="gwSPfHCUQROc68bD6OqH-183" value="" style="shape=tableRow;horizontal=0;startSize=0;swimlaneHead=0;swimlaneBody=0;fillColor=#FFCCE6;collapsible=0;dropTarget=0;points=[[0,0.5],[1,0.5]];portConstraint=eastwest;top=0;left=0;right=0;bottom=1;" vertex="1" parent="gwSPfHCUQROc68bD6OqH-182">
          <mxGeometry y="30" width="200" height="30" as="geometry" />
        </mxCell>
        <mxCell id="gwSPfHCUQROc68bD6OqH-184" value="PK" style="shape=partialRectangle;connectable=0;fillColor=#FFCCE6;top=0;left=0;bottom=0;right=0;fontStyle=1;overflow=hidden;" vertex="1" parent="gwSPfHCUQROc68bD6OqH-183">
          <mxGeometry width="30" height="30" as="geometry">
            <mxRectangle width="30" height="30" as="alternateBounds" />
          </mxGeometry>
        </mxCell>
        <mxCell id="gwSPfHCUQROc68bD6OqH-185" value="delv_id" style="shape=partialRectangle;connectable=0;fillColor=#FFCCE6;top=0;left=0;bottom=0;right=0;align=left;spacingLeft=6;fontStyle=5;overflow=hidden;" vertex="1" parent="gwSPfHCUQROc68bD6OqH-183">
          <mxGeometry x="30" width="170" height="30" as="geometry">
            <mxRectangle width="170" height="30" as="alternateBounds" />
          </mxGeometry>
        </mxCell>
        <mxCell id="gwSPfHCUQROc68bD6OqH-186" value="" style="shape=tableRow;horizontal=0;startSize=0;swimlaneHead=0;swimlaneBody=0;fillColor=#FFCCE6;collapsible=0;dropTarget=0;points=[[0,0.5],[1,0.5]];portConstraint=eastwest;top=0;left=0;right=0;bottom=0;" vertex="1" parent="gwSPfHCUQROc68bD6OqH-182">
          <mxGeometry y="60" width="200" height="35" as="geometry" />
        </mxCell>
        <mxCell id="gwSPfHCUQROc68bD6OqH-187" value="FK1" style="shape=partialRectangle;connectable=0;fillColor=#DCB9FF;top=0;left=0;bottom=0;right=0;editable=1;overflow=hidden;" vertex="1" parent="gwSPfHCUQROc68bD6OqH-186">
          <mxGeometry width="30" height="35" as="geometry">
            <mxRectangle width="30" height="35" as="alternateBounds" />
          </mxGeometry>
        </mxCell>
        <mxCell id="gwSPfHCUQROc68bD6OqH-188" value="delv_type" style="shape=partialRectangle;connectable=0;fillColor=#DCB9FF;top=0;left=0;bottom=0;right=0;align=left;spacingLeft=6;overflow=hidden;" vertex="1" parent="gwSPfHCUQROc68bD6OqH-186">
          <mxGeometry x="30" width="170" height="35" as="geometry">
            <mxRectangle width="170" height="35" as="alternateBounds" />
          </mxGeometry>
        </mxCell>
        <mxCell id="gwSPfHCUQROc68bD6OqH-189" value="" style="shape=tableRow;horizontal=0;startSize=0;swimlaneHead=0;swimlaneBody=0;fillColor=#FFCCE6;collapsible=0;dropTarget=0;points=[[0,0.5],[1,0.5]];portConstraint=eastwest;top=0;left=0;right=0;bottom=0;" vertex="1" parent="gwSPfHCUQROc68bD6OqH-182">
          <mxGeometry y="95" width="200" height="35" as="geometry" />
        </mxCell>
        <mxCell id="gwSPfHCUQROc68bD6OqH-190" value="" style="shape=partialRectangle;connectable=0;fillColor=#FFCCE6;top=0;left=0;bottom=0;right=0;editable=1;overflow=hidden;" vertex="1" parent="gwSPfHCUQROc68bD6OqH-189">
          <mxGeometry width="30" height="35" as="geometry">
            <mxRectangle width="30" height="35" as="alternateBounds" />
          </mxGeometry>
        </mxCell>
        <mxCell id="gwSPfHCUQROc68bD6OqH-191" value="delv_name" style="shape=partialRectangle;connectable=0;fillColor=#FFCCE6;top=0;left=0;bottom=0;right=0;align=left;spacingLeft=6;overflow=hidden;" vertex="1" parent="gwSPfHCUQROc68bD6OqH-189">
          <mxGeometry x="30" width="170" height="35" as="geometry">
            <mxRectangle width="170" height="35" as="alternateBounds" />
          </mxGeometry>
        </mxCell>
        <mxCell id="gwSPfHCUQROc68bD6OqH-192" value="" style="shape=tableRow;horizontal=0;startSize=0;swimlaneHead=0;swimlaneBody=0;fillColor=#FFCCE6;collapsible=0;dropTarget=0;points=[[0,0.5],[1,0.5]];portConstraint=eastwest;top=0;left=0;right=0;bottom=0;" vertex="1" parent="gwSPfHCUQROc68bD6OqH-182">
          <mxGeometry y="130" width="200" height="35" as="geometry" />
        </mxCell>
        <mxCell id="gwSPfHCUQROc68bD6OqH-193" value="" style="shape=partialRectangle;connectable=0;fillColor=#FFCCE6;top=0;left=0;bottom=0;right=0;editable=1;overflow=hidden;" vertex="1" parent="gwSPfHCUQROc68bD6OqH-192">
          <mxGeometry width="30" height="35" as="geometry">
            <mxRectangle width="30" height="35" as="alternateBounds" />
          </mxGeometry>
        </mxCell>
        <mxCell id="gwSPfHCUQROc68bD6OqH-194" value="delv_desc" style="shape=partialRectangle;connectable=0;fillColor=#FFCCE6;top=0;left=0;bottom=0;right=0;align=left;spacingLeft=6;overflow=hidden;" vertex="1" parent="gwSPfHCUQROc68bD6OqH-192">
          <mxGeometry x="30" width="170" height="35" as="geometry">
            <mxRectangle width="170" height="35" as="alternateBounds" />
          </mxGeometry>
        </mxCell>
        <mxCell id="gwSPfHCUQROc68bD6OqH-195" value="" style="shape=tableRow;horizontal=0;startSize=0;swimlaneHead=0;swimlaneBody=0;fillColor=#FFCCE6;collapsible=0;dropTarget=0;points=[[0,0.5],[1,0.5]];portConstraint=eastwest;top=0;left=0;right=0;bottom=0;" vertex="1" parent="gwSPfHCUQROc68bD6OqH-182">
          <mxGeometry y="165" width="200" height="35" as="geometry" />
        </mxCell>
        <mxCell id="gwSPfHCUQROc68bD6OqH-196" value="" style="shape=partialRectangle;connectable=0;fillColor=#FFCCE6;top=0;left=0;bottom=0;right=0;editable=1;overflow=hidden;" vertex="1" parent="gwSPfHCUQROc68bD6OqH-195">
          <mxGeometry width="30" height="35" as="geometry">
            <mxRectangle width="30" height="35" as="alternateBounds" />
          </mxGeometry>
        </mxCell>
        <mxCell id="gwSPfHCUQROc68bD6OqH-197" value="delv_fee" style="shape=partialRectangle;connectable=0;fillColor=#FFCCE6;top=0;left=0;bottom=0;right=0;align=left;spacingLeft=6;overflow=hidden;" vertex="1" parent="gwSPfHCUQROc68bD6OqH-195">
          <mxGeometry x="30" width="170" height="35" as="geometry">
            <mxRectangle width="170" height="35" as="alternateBounds" />
          </mxGeometry>
        </mxCell>
        <mxCell id="gwSPfHCUQROc68bD6OqH-198" value="cus_login" style="shape=table;startSize=30;container=1;collapsible=1;childLayout=tableLayout;fixedRows=1;rowLines=0;fontStyle=1;align=center;resizeLast=1;fillColor=#FFCC99;" vertex="1" parent="1">
          <mxGeometry x="548" y="468" width="230" height="165" as="geometry">
            <mxRectangle x="1173" y="38" width="90" height="30" as="alternateBounds" />
          </mxGeometry>
        </mxCell>
        <mxCell id="gwSPfHCUQROc68bD6OqH-199" value="" style="shape=tableRow;horizontal=0;startSize=0;swimlaneHead=0;swimlaneBody=0;fillColor=#FFCC99;collapsible=0;dropTarget=0;points=[[0,0.5],[1,0.5]];portConstraint=eastwest;top=0;left=0;right=0;bottom=1;" vertex="1" parent="gwSPfHCUQROc68bD6OqH-198">
          <mxGeometry y="30" width="230" height="30" as="geometry" />
        </mxCell>
        <mxCell id="gwSPfHCUQROc68bD6OqH-200" value="PK" style="shape=partialRectangle;connectable=0;fillColor=#FFCC99;top=0;left=0;bottom=0;right=0;fontStyle=1;overflow=hidden;" vertex="1" parent="gwSPfHCUQROc68bD6OqH-199">
          <mxGeometry width="30" height="30" as="geometry">
            <mxRectangle width="30" height="30" as="alternateBounds" />
          </mxGeometry>
        </mxCell>
        <mxCell id="gwSPfHCUQROc68bD6OqH-201" value="cus_login_id int NOT NULL" style="shape=partialRectangle;connectable=0;fillColor=#FFCC99;top=0;left=0;bottom=0;right=0;align=left;spacingLeft=6;fontStyle=5;overflow=hidden;" vertex="1" parent="gwSPfHCUQROc68bD6OqH-199">
          <mxGeometry x="30" width="200" height="30" as="geometry">
            <mxRectangle width="200" height="30" as="alternateBounds" />
          </mxGeometry>
        </mxCell>
        <mxCell id="gwSPfHCUQROc68bD6OqH-202" value="" style="shape=tableRow;horizontal=0;startSize=0;swimlaneHead=0;swimlaneBody=0;fillColor=#FFCC99;collapsible=0;dropTarget=0;points=[[0,0.5],[1,0.5]];portConstraint=eastwest;top=0;left=0;right=0;bottom=0;" vertex="1" parent="gwSPfHCUQROc68bD6OqH-198">
          <mxGeometry y="60" width="230" height="35" as="geometry" />
        </mxCell>
        <mxCell id="gwSPfHCUQROc68bD6OqH-203" value="" style="shape=partialRectangle;connectable=0;fillColor=#FFCC99;top=0;left=0;bottom=0;right=0;editable=1;overflow=hidden;" vertex="1" parent="gwSPfHCUQROc68bD6OqH-202">
          <mxGeometry width="30" height="35" as="geometry">
            <mxRectangle width="30" height="35" as="alternateBounds" />
          </mxGeometry>
        </mxCell>
        <mxCell id="gwSPfHCUQROc68bD6OqH-204" value="cus_id" style="shape=partialRectangle;connectable=0;fillColor=#FFCC99;top=0;left=0;bottom=0;right=0;align=left;spacingLeft=6;overflow=hidden;" vertex="1" parent="gwSPfHCUQROc68bD6OqH-202">
          <mxGeometry x="30" width="200" height="35" as="geometry">
            <mxRectangle width="200" height="35" as="alternateBounds" />
          </mxGeometry>
        </mxCell>
        <mxCell id="gwSPfHCUQROc68bD6OqH-205" value="" style="shape=tableRow;horizontal=0;startSize=0;swimlaneHead=0;swimlaneBody=0;fillColor=#FFCC99;collapsible=0;dropTarget=0;points=[[0,0.5],[1,0.5]];portConstraint=eastwest;top=0;left=0;right=0;bottom=0;" vertex="1" parent="gwSPfHCUQROc68bD6OqH-198">
          <mxGeometry y="95" width="230" height="35" as="geometry" />
        </mxCell>
        <mxCell id="gwSPfHCUQROc68bD6OqH-206" value="" style="shape=partialRectangle;connectable=0;fillColor=#FFCC99;top=0;left=0;bottom=0;right=0;editable=1;overflow=hidden;" vertex="1" parent="gwSPfHCUQROc68bD6OqH-205">
          <mxGeometry width="30" height="35" as="geometry">
            <mxRectangle width="30" height="35" as="alternateBounds" />
          </mxGeometry>
        </mxCell>
        <mxCell id="gwSPfHCUQROc68bD6OqH-207" value="cus_login_name" style="shape=partialRectangle;connectable=0;fillColor=#FFCC99;top=0;left=0;bottom=0;right=0;align=left;spacingLeft=6;overflow=hidden;" vertex="1" parent="gwSPfHCUQROc68bD6OqH-205">
          <mxGeometry x="30" width="200" height="35" as="geometry">
            <mxRectangle width="200" height="35" as="alternateBounds" />
          </mxGeometry>
        </mxCell>
        <mxCell id="gwSPfHCUQROc68bD6OqH-208" value="" style="shape=tableRow;horizontal=0;startSize=0;swimlaneHead=0;swimlaneBody=0;fillColor=#FFCC99;collapsible=0;dropTarget=0;points=[[0,0.5],[1,0.5]];portConstraint=eastwest;top=0;left=0;right=0;bottom=0;" vertex="1" parent="gwSPfHCUQROc68bD6OqH-198">
          <mxGeometry y="130" width="230" height="35" as="geometry" />
        </mxCell>
        <mxCell id="gwSPfHCUQROc68bD6OqH-209" value="" style="shape=partialRectangle;connectable=0;fillColor=#FFCC99;top=0;left=0;bottom=0;right=0;editable=1;overflow=hidden;" vertex="1" parent="gwSPfHCUQROc68bD6OqH-208">
          <mxGeometry width="30" height="35" as="geometry">
            <mxRectangle width="30" height="35" as="alternateBounds" />
          </mxGeometry>
        </mxCell>
        <mxCell id="gwSPfHCUQROc68bD6OqH-210" value="cus_login_pwd" style="shape=partialRectangle;connectable=0;fillColor=#FFCC99;top=0;left=0;bottom=0;right=0;align=left;spacingLeft=6;overflow=hidden;" vertex="1" parent="gwSPfHCUQROc68bD6OqH-208">
          <mxGeometry x="30" width="200" height="35" as="geometry">
            <mxRectangle width="200" height="35" as="alternateBounds" />
          </mxGeometry>
        </mxCell>
        <mxCell id="gwSPfHCUQROc68bD6OqH-211" value="cus_mship" style="shape=table;startSize=30;container=1;collapsible=1;childLayout=tableLayout;fixedRows=1;rowLines=0;fontStyle=1;align=center;resizeLast=1;fillColor=#FFF78C;" vertex="1" parent="1">
          <mxGeometry x="563" y="680" width="200" height="165" as="geometry">
            <mxRectangle x="1173" y="680" width="90" height="30" as="alternateBounds" />
          </mxGeometry>
        </mxCell>
        <mxCell id="gwSPfHCUQROc68bD6OqH-212" value="" style="shape=tableRow;horizontal=0;startSize=0;swimlaneHead=0;swimlaneBody=0;fillColor=#FFF78C;collapsible=0;dropTarget=0;points=[[0,0.5],[1,0.5]];portConstraint=eastwest;top=0;left=0;right=0;bottom=1;" vertex="1" parent="gwSPfHCUQROc68bD6OqH-211">
          <mxGeometry y="30" width="200" height="30" as="geometry" />
        </mxCell>
        <mxCell id="gwSPfHCUQROc68bD6OqH-213" value="PK" style="shape=partialRectangle;connectable=0;fillColor=#FFF78C;top=0;left=0;bottom=0;right=0;fontStyle=1;overflow=hidden;" vertex="1" parent="gwSPfHCUQROc68bD6OqH-212">
          <mxGeometry width="30" height="30" as="geometry">
            <mxRectangle width="30" height="30" as="alternateBounds" />
          </mxGeometry>
        </mxCell>
        <mxCell id="gwSPfHCUQROc68bD6OqH-214" value="mship_id int NOT NULL" style="shape=partialRectangle;connectable=0;fillColor=#FFF78C;top=0;left=0;bottom=0;right=0;align=left;spacingLeft=6;fontStyle=5;overflow=hidden;" vertex="1" parent="gwSPfHCUQROc68bD6OqH-212">
          <mxGeometry x="30" width="170" height="30" as="geometry">
            <mxRectangle width="170" height="30" as="alternateBounds" />
          </mxGeometry>
        </mxCell>
        <mxCell id="gwSPfHCUQROc68bD6OqH-215" value="" style="shape=tableRow;horizontal=0;startSize=0;swimlaneHead=0;swimlaneBody=0;fillColor=#FFF78C;collapsible=0;dropTarget=0;points=[[0,0.5],[1,0.5]];portConstraint=eastwest;top=0;left=0;right=0;bottom=0;" vertex="1" parent="gwSPfHCUQROc68bD6OqH-211">
          <mxGeometry y="60" width="200" height="35" as="geometry" />
        </mxCell>
        <mxCell id="gwSPfHCUQROc68bD6OqH-216" value="" style="shape=partialRectangle;connectable=0;fillColor=#FFF78C;top=0;left=0;bottom=0;right=0;editable=1;overflow=hidden;" vertex="1" parent="gwSPfHCUQROc68bD6OqH-215">
          <mxGeometry width="30" height="35" as="geometry">
            <mxRectangle width="30" height="35" as="alternateBounds" />
          </mxGeometry>
        </mxCell>
        <mxCell id="gwSPfHCUQROc68bD6OqH-217" value="mship_name" style="shape=partialRectangle;connectable=0;fillColor=#FFF78C;top=0;left=0;bottom=0;right=0;align=left;spacingLeft=6;overflow=hidden;" vertex="1" parent="gwSPfHCUQROc68bD6OqH-215">
          <mxGeometry x="30" width="170" height="35" as="geometry">
            <mxRectangle width="170" height="35" as="alternateBounds" />
          </mxGeometry>
        </mxCell>
        <mxCell id="gwSPfHCUQROc68bD6OqH-218" value="" style="shape=tableRow;horizontal=0;startSize=0;swimlaneHead=0;swimlaneBody=0;fillColor=#FFF78C;collapsible=0;dropTarget=0;points=[[0,0.5],[1,0.5]];portConstraint=eastwest;top=0;left=0;right=0;bottom=0;" vertex="1" parent="gwSPfHCUQROc68bD6OqH-211">
          <mxGeometry y="95" width="200" height="35" as="geometry" />
        </mxCell>
        <mxCell id="gwSPfHCUQROc68bD6OqH-219" value="" style="shape=partialRectangle;connectable=0;fillColor=#FFF78C;top=0;left=0;bottom=0;right=0;editable=1;overflow=hidden;" vertex="1" parent="gwSPfHCUQROc68bD6OqH-218">
          <mxGeometry width="30" height="35" as="geometry">
            <mxRectangle width="30" height="35" as="alternateBounds" />
          </mxGeometry>
        </mxCell>
        <mxCell id="gwSPfHCUQROc68bD6OqH-220" value="mship_privillages" style="shape=partialRectangle;connectable=0;fillColor=#FFF78C;top=0;left=0;bottom=0;right=0;align=left;spacingLeft=6;overflow=hidden;" vertex="1" parent="gwSPfHCUQROc68bD6OqH-218">
          <mxGeometry x="30" width="170" height="35" as="geometry">
            <mxRectangle width="170" height="35" as="alternateBounds" />
          </mxGeometry>
        </mxCell>
        <mxCell id="gwSPfHCUQROc68bD6OqH-221" value="" style="shape=tableRow;horizontal=0;startSize=0;swimlaneHead=0;swimlaneBody=0;fillColor=#FFF78C;collapsible=0;dropTarget=0;points=[[0,0.5],[1,0.5]];portConstraint=eastwest;top=0;left=0;right=0;bottom=0;" vertex="1" parent="gwSPfHCUQROc68bD6OqH-211">
          <mxGeometry y="130" width="200" height="35" as="geometry" />
        </mxCell>
        <mxCell id="gwSPfHCUQROc68bD6OqH-222" value="" style="shape=partialRectangle;connectable=0;fillColor=#FFF78C;top=0;left=0;bottom=0;right=0;editable=1;overflow=hidden;" vertex="1" parent="gwSPfHCUQROc68bD6OqH-221">
          <mxGeometry width="30" height="35" as="geometry">
            <mxRectangle width="30" height="35" as="alternateBounds" />
          </mxGeometry>
        </mxCell>
        <mxCell id="gwSPfHCUQROc68bD6OqH-223" value="mship_nav" style="shape=partialRectangle;connectable=0;fillColor=#FFF78C;top=0;left=0;bottom=0;right=0;align=left;spacingLeft=6;overflow=hidden;" vertex="1" parent="gwSPfHCUQROc68bD6OqH-221">
          <mxGeometry x="30" width="170" height="35" as="geometry">
            <mxRectangle width="170" height="35" as="alternateBounds" />
          </mxGeometry>
        </mxCell>
        <mxCell id="gwSPfHCUQROc68bD6OqH-224" value="" style="edgeStyle=entityRelationEdgeStyle;fontSize=12;html=1;endArrow=ERmandOne;startArrow=ERmandOne;rounded=0;" edge="1" parent="1">
          <mxGeometry width="100" height="100" relative="1" as="geometry">
            <mxPoint x="50" y="180" as="sourcePoint" />
            <mxPoint x="150" y="80" as="targetPoint" />
          </mxGeometry>
        </mxCell>
        <mxCell id="gwSPfHCUQROc68bD6OqH-225" value="&lt;div&gt;1 to 1&lt;/div&gt;" style="text;html=1;strokeColor=none;fillColor=none;align=center;verticalAlign=middle;whiteSpace=wrap;rounded=0;" vertex="1" parent="1">
          <mxGeometry x="120" y="130" width="60" height="30" as="geometry" />
        </mxCell>
        <mxCell id="gwSPfHCUQROc68bD6OqH-226" value="" style="edgeStyle=entityRelationEdgeStyle;fontSize=12;html=1;endArrow=ERone;endFill=1;rounded=0;" edge="1" parent="1">
          <mxGeometry width="100" height="100" relative="1" as="geometry">
            <mxPoint x="50" y="315" as="sourcePoint" />
            <mxPoint x="150" y="215" as="targetPoint" />
          </mxGeometry>
        </mxCell>
        <mxCell id="gwSPfHCUQROc68bD6OqH-227" value="1" style="text;html=1;strokeColor=none;fillColor=none;align=center;verticalAlign=middle;whiteSpace=wrap;rounded=0;" vertex="1" parent="1">
          <mxGeometry x="120" y="260" width="60" height="30" as="geometry" />
        </mxCell>
        <mxCell id="gwSPfHCUQROc68bD6OqH-228" value="1 mand." style="text;html=1;strokeColor=none;fillColor=none;align=center;verticalAlign=middle;whiteSpace=wrap;rounded=0;" vertex="1" parent="1">
          <mxGeometry x="120" y="400" width="60" height="30" as="geometry" />
        </mxCell>
        <mxCell id="gwSPfHCUQROc68bD6OqH-229" value="" style="edgeStyle=entityRelationEdgeStyle;fontSize=12;html=1;endArrow=ERmandOne;rounded=0;" edge="1" parent="1">
          <mxGeometry width="100" height="100" relative="1" as="geometry">
            <mxPoint x="50" y="450" as="sourcePoint" />
            <mxPoint x="150" y="350" as="targetPoint" />
          </mxGeometry>
        </mxCell>
        <mxCell id="gwSPfHCUQROc68bD6OqH-230" value="" style="edgeStyle=entityRelationEdgeStyle;fontSize=12;html=1;endArrow=ERoneToMany;rounded=0;" edge="1" parent="1">
          <mxGeometry width="100" height="100" relative="1" as="geometry">
            <mxPoint x="50" y="590" as="sourcePoint" />
            <mxPoint x="150" y="490" as="targetPoint" />
          </mxGeometry>
        </mxCell>
        <mxCell id="gwSPfHCUQROc68bD6OqH-231" value="1 to many" style="text;html=1;strokeColor=none;fillColor=none;align=center;verticalAlign=middle;whiteSpace=wrap;rounded=0;" vertex="1" parent="1">
          <mxGeometry x="120" y="540" width="60" height="30" as="geometry" />
        </mxCell>
        <mxCell id="gwSPfHCUQROc68bD6OqH-232" value="cus_paym_ord_delv" style="shape=table;startSize=30;container=1;collapsible=1;childLayout=tableLayout;fixedRows=1;rowLines=0;fontStyle=1;align=center;resizeLast=1;fillColor=#DCB9FF;" vertex="1" parent="1">
          <mxGeometry x="220" y="220" width="260" height="865" as="geometry">
            <mxRectangle x="1210" y="238" width="90" height="30" as="alternateBounds" />
          </mxGeometry>
        </mxCell>
        <mxCell id="gwSPfHCUQROc68bD6OqH-233" value="" style="shape=tableRow;horizontal=0;startSize=0;swimlaneHead=0;swimlaneBody=0;fillColor=#DCB9FF;collapsible=0;dropTarget=0;points=[[0,0.5],[1,0.5]];portConstraint=eastwest;top=0;left=0;right=0;bottom=1;" vertex="1" parent="gwSPfHCUQROc68bD6OqH-232">
          <mxGeometry y="30" width="260" height="30" as="geometry" />
        </mxCell>
        <mxCell id="gwSPfHCUQROc68bD6OqH-234" value="PK" style="shape=partialRectangle;connectable=0;fillColor=#DCB9FF;top=0;left=0;bottom=0;right=0;fontStyle=1;overflow=hidden;" vertex="1" parent="gwSPfHCUQROc68bD6OqH-233">
          <mxGeometry width="30" height="30" as="geometry">
            <mxRectangle width="30" height="30" as="alternateBounds" />
          </mxGeometry>
        </mxCell>
        <mxCell id="gwSPfHCUQROc68bD6OqH-235" value="paym_ord_delv_id int NOT NULL" style="shape=partialRectangle;connectable=0;fillColor=#DCB9FF;top=0;left=0;bottom=0;right=0;align=left;spacingLeft=6;fontStyle=5;overflow=hidden;" vertex="1" parent="gwSPfHCUQROc68bD6OqH-233">
          <mxGeometry x="30" width="230" height="30" as="geometry">
            <mxRectangle width="230" height="30" as="alternateBounds" />
          </mxGeometry>
        </mxCell>
        <mxCell id="gwSPfHCUQROc68bD6OqH-236" value="" style="shape=tableRow;horizontal=0;startSize=0;swimlaneHead=0;swimlaneBody=0;fillColor=#DCB9FF;collapsible=0;dropTarget=0;points=[[0,0.5],[1,0.5]];portConstraint=eastwest;top=0;left=0;right=0;bottom=0;" vertex="1" parent="gwSPfHCUQROc68bD6OqH-232">
          <mxGeometry y="60" width="260" height="35" as="geometry" />
        </mxCell>
        <mxCell id="gwSPfHCUQROc68bD6OqH-237" value="" style="shape=partialRectangle;connectable=0;fillColor=#DCB9FF;top=0;left=0;bottom=0;right=0;editable=1;overflow=hidden;" vertex="1" parent="gwSPfHCUQROc68bD6OqH-236">
          <mxGeometry width="30" height="35" as="geometry">
            <mxRectangle width="30" height="35" as="alternateBounds" />
          </mxGeometry>
        </mxCell>
        <mxCell id="gwSPfHCUQROc68bD6OqH-238" value="cus_login_id" style="shape=partialRectangle;connectable=0;fillColor=#DCB9FF;top=0;left=0;bottom=0;right=0;align=left;spacingLeft=6;overflow=hidden;" vertex="1" parent="gwSPfHCUQROc68bD6OqH-236">
          <mxGeometry x="30" width="230" height="35" as="geometry">
            <mxRectangle width="230" height="35" as="alternateBounds" />
          </mxGeometry>
        </mxCell>
        <mxCell id="gwSPfHCUQROc68bD6OqH-239" value="" style="shape=tableRow;horizontal=0;startSize=0;swimlaneHead=0;swimlaneBody=0;fillColor=#DCB9FF;collapsible=0;dropTarget=0;points=[[0,0.5],[1,0.5]];portConstraint=eastwest;top=0;left=0;right=0;bottom=0;" vertex="1" parent="gwSPfHCUQROc68bD6OqH-232">
          <mxGeometry y="95" width="260" height="35" as="geometry" />
        </mxCell>
        <mxCell id="gwSPfHCUQROc68bD6OqH-240" value="" style="shape=partialRectangle;connectable=0;fillColor=#DCB9FF;top=0;left=0;bottom=0;right=0;editable=1;overflow=hidden;" vertex="1" parent="gwSPfHCUQROc68bD6OqH-239">
          <mxGeometry width="30" height="35" as="geometry">
            <mxRectangle width="30" height="35" as="alternateBounds" />
          </mxGeometry>
        </mxCell>
        <mxCell id="gwSPfHCUQROc68bD6OqH-241" value="cus_mobile" style="shape=partialRectangle;connectable=0;fillColor=#DCB9FF;top=0;left=0;bottom=0;right=0;align=left;spacingLeft=6;overflow=hidden;" vertex="1" parent="gwSPfHCUQROc68bD6OqH-239">
          <mxGeometry x="30" width="230" height="35" as="geometry">
            <mxRectangle width="230" height="35" as="alternateBounds" />
          </mxGeometry>
        </mxCell>
        <mxCell id="gwSPfHCUQROc68bD6OqH-242" value="" style="shape=tableRow;horizontal=0;startSize=0;swimlaneHead=0;swimlaneBody=0;fillColor=#DCB9FF;collapsible=0;dropTarget=0;points=[[0,0.5],[1,0.5]];portConstraint=eastwest;top=0;left=0;right=0;bottom=0;" vertex="1" parent="gwSPfHCUQROc68bD6OqH-232">
          <mxGeometry y="130" width="260" height="35" as="geometry" />
        </mxCell>
        <mxCell id="gwSPfHCUQROc68bD6OqH-243" value="" style="shape=partialRectangle;connectable=0;fillColor=#DCB9FF;top=0;left=0;bottom=0;right=0;editable=1;overflow=hidden;" vertex="1" parent="gwSPfHCUQROc68bD6OqH-242">
          <mxGeometry width="30" height="35" as="geometry">
            <mxRectangle width="30" height="35" as="alternateBounds" />
          </mxGeometry>
        </mxCell>
        <mxCell id="gwSPfHCUQROc68bD6OqH-244" value="cus_email" style="shape=partialRectangle;connectable=0;fillColor=#DCB9FF;top=0;left=0;bottom=0;right=0;align=left;spacingLeft=6;overflow=hidden;" vertex="1" parent="gwSPfHCUQROc68bD6OqH-242">
          <mxGeometry x="30" width="230" height="35" as="geometry">
            <mxRectangle width="230" height="35" as="alternateBounds" />
          </mxGeometry>
        </mxCell>
        <mxCell id="gwSPfHCUQROc68bD6OqH-245" value="" style="shape=tableRow;horizontal=0;startSize=0;swimlaneHead=0;swimlaneBody=0;fillColor=#DCB9FF;collapsible=0;dropTarget=0;points=[[0,0.5],[1,0.5]];portConstraint=eastwest;top=0;left=0;right=0;bottom=0;" vertex="1" parent="gwSPfHCUQROc68bD6OqH-232">
          <mxGeometry y="165" width="260" height="35" as="geometry" />
        </mxCell>
        <mxCell id="gwSPfHCUQROc68bD6OqH-246" value="" style="shape=partialRectangle;connectable=0;fillColor=#DCB9FF;top=0;left=0;bottom=0;right=0;editable=1;overflow=hidden;" vertex="1" parent="gwSPfHCUQROc68bD6OqH-245">
          <mxGeometry width="30" height="35" as="geometry">
            <mxRectangle width="30" height="35" as="alternateBounds" />
          </mxGeometry>
        </mxCell>
        <mxCell id="gwSPfHCUQROc68bD6OqH-247" value="cus_prm_addrs" style="shape=partialRectangle;connectable=0;fillColor=#DCB9FF;top=0;left=0;bottom=0;right=0;align=left;spacingLeft=6;overflow=hidden;" vertex="1" parent="gwSPfHCUQROc68bD6OqH-245">
          <mxGeometry x="30" width="230" height="35" as="geometry">
            <mxRectangle width="230" height="35" as="alternateBounds" />
          </mxGeometry>
        </mxCell>
        <mxCell id="gwSPfHCUQROc68bD6OqH-248" value="" style="shape=tableRow;horizontal=0;startSize=0;swimlaneHead=0;swimlaneBody=0;fillColor=#DCB9FF;collapsible=0;dropTarget=0;points=[[0,0.5],[1,0.5]];portConstraint=eastwest;top=0;left=0;right=0;bottom=0;" vertex="1" parent="gwSPfHCUQROc68bD6OqH-232">
          <mxGeometry y="200" width="260" height="35" as="geometry" />
        </mxCell>
        <mxCell id="gwSPfHCUQROc68bD6OqH-249" value="" style="shape=partialRectangle;connectable=0;fillColor=#DCB9FF;top=0;left=0;bottom=0;right=0;editable=1;overflow=hidden;" vertex="1" parent="gwSPfHCUQROc68bD6OqH-248">
          <mxGeometry width="30" height="35" as="geometry">
            <mxRectangle width="30" height="35" as="alternateBounds" />
          </mxGeometry>
        </mxCell>
        <mxCell id="gwSPfHCUQROc68bD6OqH-250" value="cus_sec_addrs_l1" style="shape=partialRectangle;connectable=0;fillColor=#DCB9FF;top=0;left=0;bottom=0;right=0;align=left;spacingLeft=6;overflow=hidden;" vertex="1" parent="gwSPfHCUQROc68bD6OqH-248">
          <mxGeometry x="30" width="230" height="35" as="geometry">
            <mxRectangle width="230" height="35" as="alternateBounds" />
          </mxGeometry>
        </mxCell>
        <mxCell id="gwSPfHCUQROc68bD6OqH-251" value="" style="shape=tableRow;horizontal=0;startSize=0;swimlaneHead=0;swimlaneBody=0;fillColor=#DCB9FF;collapsible=0;dropTarget=0;points=[[0,0.5],[1,0.5]];portConstraint=eastwest;top=0;left=0;right=0;bottom=0;" vertex="1" parent="gwSPfHCUQROc68bD6OqH-232">
          <mxGeometry y="235" width="260" height="35" as="geometry" />
        </mxCell>
        <mxCell id="gwSPfHCUQROc68bD6OqH-252" value="" style="shape=partialRectangle;connectable=0;fillColor=#DCB9FF;top=0;left=0;bottom=0;right=0;editable=1;overflow=hidden;" vertex="1" parent="gwSPfHCUQROc68bD6OqH-251">
          <mxGeometry width="30" height="35" as="geometry">
            <mxRectangle width="30" height="35" as="alternateBounds" />
          </mxGeometry>
        </mxCell>
        <mxCell id="gwSPfHCUQROc68bD6OqH-253" value="cus_sec_addrs_l2" style="shape=partialRectangle;connectable=0;fillColor=#DCB9FF;top=0;left=0;bottom=0;right=0;align=left;spacingLeft=6;overflow=hidden;" vertex="1" parent="gwSPfHCUQROc68bD6OqH-251">
          <mxGeometry x="30" width="230" height="35" as="geometry">
            <mxRectangle width="230" height="35" as="alternateBounds" />
          </mxGeometry>
        </mxCell>
        <mxCell id="gwSPfHCUQROc68bD6OqH-254" value="" style="shape=tableRow;horizontal=0;startSize=0;swimlaneHead=0;swimlaneBody=0;fillColor=#DCB9FF;collapsible=0;dropTarget=0;points=[[0,0.5],[1,0.5]];portConstraint=eastwest;top=0;left=0;right=0;bottom=0;" vertex="1" parent="gwSPfHCUQROc68bD6OqH-232">
          <mxGeometry y="270" width="260" height="35" as="geometry" />
        </mxCell>
        <mxCell id="gwSPfHCUQROc68bD6OqH-255" value="" style="shape=partialRectangle;connectable=0;fillColor=#DCB9FF;top=0;left=0;bottom=0;right=0;editable=1;overflow=hidden;" vertex="1" parent="gwSPfHCUQROc68bD6OqH-254">
          <mxGeometry width="30" height="35" as="geometry">
            <mxRectangle width="30" height="35" as="alternateBounds" />
          </mxGeometry>
        </mxCell>
        <mxCell id="gwSPfHCUQROc68bD6OqH-256" value="cus_sec_addrs_city" style="shape=partialRectangle;connectable=0;fillColor=#DCB9FF;top=0;left=0;bottom=0;right=0;align=left;spacingLeft=6;overflow=hidden;" vertex="1" parent="gwSPfHCUQROc68bD6OqH-254">
          <mxGeometry x="30" width="230" height="35" as="geometry">
            <mxRectangle width="230" height="35" as="alternateBounds" />
          </mxGeometry>
        </mxCell>
        <mxCell id="gwSPfHCUQROc68bD6OqH-257" value="" style="shape=tableRow;horizontal=0;startSize=0;swimlaneHead=0;swimlaneBody=0;fillColor=#DCB9FF;collapsible=0;dropTarget=0;points=[[0,0.5],[1,0.5]];portConstraint=eastwest;top=0;left=0;right=0;bottom=0;" vertex="1" parent="gwSPfHCUQROc68bD6OqH-232">
          <mxGeometry y="305" width="260" height="35" as="geometry" />
        </mxCell>
        <mxCell id="gwSPfHCUQROc68bD6OqH-258" value="" style="shape=partialRectangle;connectable=0;fillColor=#DCB9FF;top=0;left=0;bottom=0;right=0;editable=1;overflow=hidden;" vertex="1" parent="gwSPfHCUQROc68bD6OqH-257">
          <mxGeometry width="30" height="35" as="geometry">
            <mxRectangle width="30" height="35" as="alternateBounds" />
          </mxGeometry>
        </mxCell>
        <mxCell id="gwSPfHCUQROc68bD6OqH-259" value="cus_p_meth_1" style="shape=partialRectangle;connectable=0;fillColor=#DCB9FF;top=0;left=0;bottom=0;right=0;align=left;spacingLeft=6;overflow=hidden;" vertex="1" parent="gwSPfHCUQROc68bD6OqH-257">
          <mxGeometry x="30" width="230" height="35" as="geometry">
            <mxRectangle width="230" height="35" as="alternateBounds" />
          </mxGeometry>
        </mxCell>
        <mxCell id="gwSPfHCUQROc68bD6OqH-260" value="" style="shape=tableRow;horizontal=0;startSize=0;swimlaneHead=0;swimlaneBody=0;fillColor=#DCB9FF;collapsible=0;dropTarget=0;points=[[0,0.5],[1,0.5]];portConstraint=eastwest;top=0;left=0;right=0;bottom=0;" vertex="1" parent="gwSPfHCUQROc68bD6OqH-232">
          <mxGeometry y="340" width="260" height="35" as="geometry" />
        </mxCell>
        <mxCell id="gwSPfHCUQROc68bD6OqH-261" value="" style="shape=partialRectangle;connectable=0;fillColor=#DCB9FF;top=0;left=0;bottom=0;right=0;editable=1;overflow=hidden;" vertex="1" parent="gwSPfHCUQROc68bD6OqH-260">
          <mxGeometry width="30" height="35" as="geometry">
            <mxRectangle width="30" height="35" as="alternateBounds" />
          </mxGeometry>
        </mxCell>
        <mxCell id="gwSPfHCUQROc68bD6OqH-262" value="cus_p_meth_1_i" style="shape=partialRectangle;connectable=0;fillColor=#DCB9FF;top=0;left=0;bottom=0;right=0;align=left;spacingLeft=6;overflow=hidden;" vertex="1" parent="gwSPfHCUQROc68bD6OqH-260">
          <mxGeometry x="30" width="230" height="35" as="geometry">
            <mxRectangle width="230" height="35" as="alternateBounds" />
          </mxGeometry>
        </mxCell>
        <mxCell id="gwSPfHCUQROc68bD6OqH-263" value="" style="shape=tableRow;horizontal=0;startSize=0;swimlaneHead=0;swimlaneBody=0;fillColor=#DCB9FF;collapsible=0;dropTarget=0;points=[[0,0.5],[1,0.5]];portConstraint=eastwest;top=0;left=0;right=0;bottom=0;" vertex="1" parent="gwSPfHCUQROc68bD6OqH-232">
          <mxGeometry y="375" width="260" height="35" as="geometry" />
        </mxCell>
        <mxCell id="gwSPfHCUQROc68bD6OqH-264" value="" style="shape=partialRectangle;connectable=0;fillColor=#DCB9FF;top=0;left=0;bottom=0;right=0;editable=1;overflow=hidden;" vertex="1" parent="gwSPfHCUQROc68bD6OqH-263">
          <mxGeometry width="30" height="35" as="geometry">
            <mxRectangle width="30" height="35" as="alternateBounds" />
          </mxGeometry>
        </mxCell>
        <mxCell id="gwSPfHCUQROc68bD6OqH-265" value="cus_p_meth_1_ii" style="shape=partialRectangle;connectable=0;fillColor=#DCB9FF;top=0;left=0;bottom=0;right=0;align=left;spacingLeft=6;overflow=hidden;" vertex="1" parent="gwSPfHCUQROc68bD6OqH-263">
          <mxGeometry x="30" width="230" height="35" as="geometry">
            <mxRectangle width="230" height="35" as="alternateBounds" />
          </mxGeometry>
        </mxCell>
        <mxCell id="gwSPfHCUQROc68bD6OqH-266" value="" style="shape=tableRow;horizontal=0;startSize=0;swimlaneHead=0;swimlaneBody=0;fillColor=#DCB9FF;collapsible=0;dropTarget=0;points=[[0,0.5],[1,0.5]];portConstraint=eastwest;top=0;left=0;right=0;bottom=0;" vertex="1" parent="gwSPfHCUQROc68bD6OqH-232">
          <mxGeometry y="410" width="260" height="35" as="geometry" />
        </mxCell>
        <mxCell id="gwSPfHCUQROc68bD6OqH-267" value="" style="shape=partialRectangle;connectable=0;fillColor=#DCB9FF;top=0;left=0;bottom=0;right=0;editable=1;overflow=hidden;" vertex="1" parent="gwSPfHCUQROc68bD6OqH-266">
          <mxGeometry width="30" height="35" as="geometry">
            <mxRectangle width="30" height="35" as="alternateBounds" />
          </mxGeometry>
        </mxCell>
        <mxCell id="gwSPfHCUQROc68bD6OqH-268" value="cus_p_meth_1_iii" style="shape=partialRectangle;connectable=0;fillColor=#DCB9FF;top=0;left=0;bottom=0;right=0;align=left;spacingLeft=6;overflow=hidden;" vertex="1" parent="gwSPfHCUQROc68bD6OqH-266">
          <mxGeometry x="30" width="230" height="35" as="geometry">
            <mxRectangle width="230" height="35" as="alternateBounds" />
          </mxGeometry>
        </mxCell>
        <mxCell id="gwSPfHCUQROc68bD6OqH-269" value="" style="shape=tableRow;horizontal=0;startSize=0;swimlaneHead=0;swimlaneBody=0;fillColor=#DCB9FF;collapsible=0;dropTarget=0;points=[[0,0.5],[1,0.5]];portConstraint=eastwest;top=0;left=0;right=0;bottom=0;" vertex="1" parent="gwSPfHCUQROc68bD6OqH-232">
          <mxGeometry y="445" width="260" height="35" as="geometry" />
        </mxCell>
        <mxCell id="gwSPfHCUQROc68bD6OqH-270" value="" style="shape=partialRectangle;connectable=0;fillColor=#DCB9FF;top=0;left=0;bottom=0;right=0;editable=1;overflow=hidden;" vertex="1" parent="gwSPfHCUQROc68bD6OqH-269">
          <mxGeometry width="30" height="35" as="geometry">
            <mxRectangle width="30" height="35" as="alternateBounds" />
          </mxGeometry>
        </mxCell>
        <mxCell id="gwSPfHCUQROc68bD6OqH-271" value="cus_p_meth_1_iv" style="shape=partialRectangle;connectable=0;fillColor=#DCB9FF;top=0;left=0;bottom=0;right=0;align=left;spacingLeft=6;overflow=hidden;" vertex="1" parent="gwSPfHCUQROc68bD6OqH-269">
          <mxGeometry x="30" width="230" height="35" as="geometry">
            <mxRectangle width="230" height="35" as="alternateBounds" />
          </mxGeometry>
        </mxCell>
        <mxCell id="gwSPfHCUQROc68bD6OqH-272" value="" style="shape=tableRow;horizontal=0;startSize=0;swimlaneHead=0;swimlaneBody=0;fillColor=#DCB9FF;collapsible=0;dropTarget=0;points=[[0,0.5],[1,0.5]];portConstraint=eastwest;top=0;left=0;right=0;bottom=0;" vertex="1" parent="gwSPfHCUQROc68bD6OqH-232">
          <mxGeometry y="480" width="260" height="35" as="geometry" />
        </mxCell>
        <mxCell id="gwSPfHCUQROc68bD6OqH-273" value="" style="shape=partialRectangle;connectable=0;fillColor=#DCB9FF;top=0;left=0;bottom=0;right=0;editable=1;overflow=hidden;" vertex="1" parent="gwSPfHCUQROc68bD6OqH-272">
          <mxGeometry width="30" height="35" as="geometry">
            <mxRectangle width="30" height="35" as="alternateBounds" />
          </mxGeometry>
        </mxCell>
        <mxCell id="gwSPfHCUQROc68bD6OqH-274" value="cus_p_meth_2" style="shape=partialRectangle;connectable=0;fillColor=#DCB9FF;top=0;left=0;bottom=0;right=0;align=left;spacingLeft=6;overflow=hidden;" vertex="1" parent="gwSPfHCUQROc68bD6OqH-272">
          <mxGeometry x="30" width="230" height="35" as="geometry">
            <mxRectangle width="230" height="35" as="alternateBounds" />
          </mxGeometry>
        </mxCell>
        <mxCell id="gwSPfHCUQROc68bD6OqH-275" value="" style="shape=tableRow;horizontal=0;startSize=0;swimlaneHead=0;swimlaneBody=0;fillColor=#DCB9FF;collapsible=0;dropTarget=0;points=[[0,0.5],[1,0.5]];portConstraint=eastwest;top=0;left=0;right=0;bottom=0;" vertex="1" parent="gwSPfHCUQROc68bD6OqH-232">
          <mxGeometry y="515" width="260" height="35" as="geometry" />
        </mxCell>
        <mxCell id="gwSPfHCUQROc68bD6OqH-276" value="" style="shape=partialRectangle;connectable=0;fillColor=#DCB9FF;top=0;left=0;bottom=0;right=0;editable=1;overflow=hidden;" vertex="1" parent="gwSPfHCUQROc68bD6OqH-275">
          <mxGeometry width="30" height="35" as="geometry">
            <mxRectangle width="30" height="35" as="alternateBounds" />
          </mxGeometry>
        </mxCell>
        <mxCell id="gwSPfHCUQROc68bD6OqH-277" value="cus_p_meth_2_i" style="shape=partialRectangle;connectable=0;fillColor=#DCB9FF;top=0;left=0;bottom=0;right=0;align=left;spacingLeft=6;overflow=hidden;" vertex="1" parent="gwSPfHCUQROc68bD6OqH-275">
          <mxGeometry x="30" width="230" height="35" as="geometry">
            <mxRectangle width="230" height="35" as="alternateBounds" />
          </mxGeometry>
        </mxCell>
        <mxCell id="gwSPfHCUQROc68bD6OqH-278" value="" style="shape=tableRow;horizontal=0;startSize=0;swimlaneHead=0;swimlaneBody=0;fillColor=#DCB9FF;collapsible=0;dropTarget=0;points=[[0,0.5],[1,0.5]];portConstraint=eastwest;top=0;left=0;right=0;bottom=0;" vertex="1" parent="gwSPfHCUQROc68bD6OqH-232">
          <mxGeometry y="550" width="260" height="35" as="geometry" />
        </mxCell>
        <mxCell id="gwSPfHCUQROc68bD6OqH-279" value="" style="shape=partialRectangle;connectable=0;fillColor=#DCB9FF;top=0;left=0;bottom=0;right=0;editable=1;overflow=hidden;" vertex="1" parent="gwSPfHCUQROc68bD6OqH-278">
          <mxGeometry width="30" height="35" as="geometry">
            <mxRectangle width="30" height="35" as="alternateBounds" />
          </mxGeometry>
        </mxCell>
        <mxCell id="gwSPfHCUQROc68bD6OqH-280" value="cus_p_meth_2_ii" style="shape=partialRectangle;connectable=0;fillColor=#DCB9FF;top=0;left=0;bottom=0;right=0;align=left;spacingLeft=6;overflow=hidden;" vertex="1" parent="gwSPfHCUQROc68bD6OqH-278">
          <mxGeometry x="30" width="230" height="35" as="geometry">
            <mxRectangle width="230" height="35" as="alternateBounds" />
          </mxGeometry>
        </mxCell>
        <mxCell id="gwSPfHCUQROc68bD6OqH-281" value="" style="shape=tableRow;horizontal=0;startSize=0;swimlaneHead=0;swimlaneBody=0;fillColor=#DCB9FF;collapsible=0;dropTarget=0;points=[[0,0.5],[1,0.5]];portConstraint=eastwest;top=0;left=0;right=0;bottom=0;" vertex="1" parent="gwSPfHCUQROc68bD6OqH-232">
          <mxGeometry y="585" width="260" height="35" as="geometry" />
        </mxCell>
        <mxCell id="gwSPfHCUQROc68bD6OqH-282" value="" style="shape=partialRectangle;connectable=0;fillColor=#DCB9FF;top=0;left=0;bottom=0;right=0;editable=1;overflow=hidden;" vertex="1" parent="gwSPfHCUQROc68bD6OqH-281">
          <mxGeometry width="30" height="35" as="geometry">
            <mxRectangle width="30" height="35" as="alternateBounds" />
          </mxGeometry>
        </mxCell>
        <mxCell id="gwSPfHCUQROc68bD6OqH-283" value="cus_p_meth_2_iii" style="shape=partialRectangle;connectable=0;fillColor=#DCB9FF;top=0;left=0;bottom=0;right=0;align=left;spacingLeft=6;overflow=hidden;" vertex="1" parent="gwSPfHCUQROc68bD6OqH-281">
          <mxGeometry x="30" width="230" height="35" as="geometry">
            <mxRectangle width="230" height="35" as="alternateBounds" />
          </mxGeometry>
        </mxCell>
        <mxCell id="gwSPfHCUQROc68bD6OqH-284" value="" style="shape=tableRow;horizontal=0;startSize=0;swimlaneHead=0;swimlaneBody=0;fillColor=#DCB9FF;collapsible=0;dropTarget=0;points=[[0,0.5],[1,0.5]];portConstraint=eastwest;top=0;left=0;right=0;bottom=0;" vertex="1" parent="gwSPfHCUQROc68bD6OqH-232">
          <mxGeometry y="620" width="260" height="35" as="geometry" />
        </mxCell>
        <mxCell id="gwSPfHCUQROc68bD6OqH-285" value="" style="shape=partialRectangle;connectable=0;fillColor=#DCB9FF;top=0;left=0;bottom=0;right=0;editable=1;overflow=hidden;" vertex="1" parent="gwSPfHCUQROc68bD6OqH-284">
          <mxGeometry width="30" height="35" as="geometry">
            <mxRectangle width="30" height="35" as="alternateBounds" />
          </mxGeometry>
        </mxCell>
        <mxCell id="gwSPfHCUQROc68bD6OqH-286" value="cus_p_meth_2_iv" style="shape=partialRectangle;connectable=0;fillColor=#DCB9FF;top=0;left=0;bottom=0;right=0;align=left;spacingLeft=6;overflow=hidden;" vertex="1" parent="gwSPfHCUQROc68bD6OqH-284">
          <mxGeometry x="30" width="230" height="35" as="geometry">
            <mxRectangle width="230" height="35" as="alternateBounds" />
          </mxGeometry>
        </mxCell>
        <mxCell id="gwSPfHCUQROc68bD6OqH-287" value="" style="shape=tableRow;horizontal=0;startSize=0;swimlaneHead=0;swimlaneBody=0;fillColor=#DCB9FF;collapsible=0;dropTarget=0;points=[[0,0.5],[1,0.5]];portConstraint=eastwest;top=0;left=0;right=0;bottom=0;" vertex="1" parent="gwSPfHCUQROc68bD6OqH-232">
          <mxGeometry y="655" width="260" height="35" as="geometry" />
        </mxCell>
        <mxCell id="gwSPfHCUQROc68bD6OqH-288" value="" style="shape=partialRectangle;connectable=0;fillColor=#DCB9FF;top=0;left=0;bottom=0;right=0;editable=1;overflow=hidden;" vertex="1" parent="gwSPfHCUQROc68bD6OqH-287">
          <mxGeometry width="30" height="35" as="geometry">
            <mxRectangle width="30" height="35" as="alternateBounds" />
          </mxGeometry>
        </mxCell>
        <mxCell id="gwSPfHCUQROc68bD6OqH-289" value="cus_p_meth_2_v" style="shape=partialRectangle;connectable=0;fillColor=#DCB9FF;top=0;left=0;bottom=0;right=0;align=left;spacingLeft=6;overflow=hidden;" vertex="1" parent="gwSPfHCUQROc68bD6OqH-287">
          <mxGeometry x="30" width="230" height="35" as="geometry">
            <mxRectangle width="230" height="35" as="alternateBounds" />
          </mxGeometry>
        </mxCell>
        <mxCell id="gwSPfHCUQROc68bD6OqH-290" value="" style="shape=tableRow;horizontal=0;startSize=0;swimlaneHead=0;swimlaneBody=0;fillColor=#DCB9FF;collapsible=0;dropTarget=0;points=[[0,0.5],[1,0.5]];portConstraint=eastwest;top=0;left=0;right=0;bottom=0;" vertex="1" parent="gwSPfHCUQROc68bD6OqH-232">
          <mxGeometry y="690" width="260" height="35" as="geometry" />
        </mxCell>
        <mxCell id="gwSPfHCUQROc68bD6OqH-291" value="" style="shape=partialRectangle;connectable=0;fillColor=#DCB9FF;top=0;left=0;bottom=0;right=0;editable=1;overflow=hidden;" vertex="1" parent="gwSPfHCUQROc68bD6OqH-290">
          <mxGeometry width="30" height="35" as="geometry">
            <mxRectangle width="30" height="35" as="alternateBounds" />
          </mxGeometry>
        </mxCell>
        <mxCell id="gwSPfHCUQROc68bD6OqH-292" value="cus_p_meth_2_vi" style="shape=partialRectangle;connectable=0;fillColor=#DCB9FF;top=0;left=0;bottom=0;right=0;align=left;spacingLeft=6;overflow=hidden;" vertex="1" parent="gwSPfHCUQROc68bD6OqH-290">
          <mxGeometry x="30" width="230" height="35" as="geometry">
            <mxRectangle width="230" height="35" as="alternateBounds" />
          </mxGeometry>
        </mxCell>
        <mxCell id="gwSPfHCUQROc68bD6OqH-293" value="" style="shape=tableRow;horizontal=0;startSize=0;swimlaneHead=0;swimlaneBody=0;fillColor=#DCB9FF;collapsible=0;dropTarget=0;points=[[0,0.5],[1,0.5]];portConstraint=eastwest;top=0;left=0;right=0;bottom=0;" vertex="1" parent="gwSPfHCUQROc68bD6OqH-232">
          <mxGeometry y="725" width="260" height="35" as="geometry" />
        </mxCell>
        <mxCell id="gwSPfHCUQROc68bD6OqH-294" value="" style="shape=partialRectangle;connectable=0;fillColor=#DCB9FF;top=0;left=0;bottom=0;right=0;editable=1;overflow=hidden;" vertex="1" parent="gwSPfHCUQROc68bD6OqH-293">
          <mxGeometry width="30" height="35" as="geometry">
            <mxRectangle width="30" height="35" as="alternateBounds" />
          </mxGeometry>
        </mxCell>
        <mxCell id="gwSPfHCUQROc68bD6OqH-295" value="cus_pending_ords" style="shape=partialRectangle;connectable=0;fillColor=#DCB9FF;top=0;left=0;bottom=0;right=0;align=left;spacingLeft=6;overflow=hidden;" vertex="1" parent="gwSPfHCUQROc68bD6OqH-293">
          <mxGeometry x="30" width="230" height="35" as="geometry">
            <mxRectangle width="230" height="35" as="alternateBounds" />
          </mxGeometry>
        </mxCell>
        <mxCell id="gwSPfHCUQROc68bD6OqH-296" value="" style="shape=tableRow;horizontal=0;startSize=0;swimlaneHead=0;swimlaneBody=0;fillColor=#DCB9FF;collapsible=0;dropTarget=0;points=[[0,0.5],[1,0.5]];portConstraint=eastwest;top=0;left=0;right=0;bottom=0;" vertex="1" parent="gwSPfHCUQROc68bD6OqH-232">
          <mxGeometry y="760" width="260" height="35" as="geometry" />
        </mxCell>
        <mxCell id="gwSPfHCUQROc68bD6OqH-297" value="" style="shape=partialRectangle;connectable=0;fillColor=#DCB9FF;top=0;left=0;bottom=0;right=0;editable=1;overflow=hidden;" vertex="1" parent="gwSPfHCUQROc68bD6OqH-296">
          <mxGeometry width="30" height="35" as="geometry">
            <mxRectangle width="30" height="35" as="alternateBounds" />
          </mxGeometry>
        </mxCell>
        <mxCell id="gwSPfHCUQROc68bD6OqH-298" value="cus_credits" style="shape=partialRectangle;connectable=0;fillColor=#DCB9FF;top=0;left=0;bottom=0;right=0;align=left;spacingLeft=6;overflow=hidden;" vertex="1" parent="gwSPfHCUQROc68bD6OqH-296">
          <mxGeometry x="30" width="230" height="35" as="geometry">
            <mxRectangle width="230" height="35" as="alternateBounds" />
          </mxGeometry>
        </mxCell>
        <mxCell id="gwSPfHCUQROc68bD6OqH-299" value="" style="shape=tableRow;horizontal=0;startSize=0;swimlaneHead=0;swimlaneBody=0;fillColor=#DCB9FF;collapsible=0;dropTarget=0;points=[[0,0.5],[1,0.5]];portConstraint=eastwest;top=0;left=0;right=0;bottom=0;" vertex="1" parent="gwSPfHCUQROc68bD6OqH-232">
          <mxGeometry y="795" width="260" height="35" as="geometry" />
        </mxCell>
        <mxCell id="gwSPfHCUQROc68bD6OqH-300" value="" style="shape=partialRectangle;connectable=0;fillColor=#DCB9FF;top=0;left=0;bottom=0;right=0;editable=1;overflow=hidden;" vertex="1" parent="gwSPfHCUQROc68bD6OqH-299">
          <mxGeometry width="30" height="35" as="geometry">
            <mxRectangle width="30" height="35" as="alternateBounds" />
          </mxGeometry>
        </mxCell>
        <mxCell id="gwSPfHCUQROc68bD6OqH-301" value="cus_change" style="shape=partialRectangle;connectable=0;fillColor=#DCB9FF;top=0;left=0;bottom=0;right=0;align=left;spacingLeft=6;overflow=hidden;" vertex="1" parent="gwSPfHCUQROc68bD6OqH-299">
          <mxGeometry x="30" width="230" height="35" as="geometry">
            <mxRectangle width="230" height="35" as="alternateBounds" />
          </mxGeometry>
        </mxCell>
        <mxCell id="gwSPfHCUQROc68bD6OqH-302" value="" style="shape=tableRow;horizontal=0;startSize=0;swimlaneHead=0;swimlaneBody=0;fillColor=#DCB9FF;collapsible=0;dropTarget=0;points=[[0,0.5],[1,0.5]];portConstraint=eastwest;top=0;left=0;right=0;bottom=0;" vertex="1" parent="gwSPfHCUQROc68bD6OqH-232">
          <mxGeometry y="830" width="260" height="35" as="geometry" />
        </mxCell>
        <mxCell id="gwSPfHCUQROc68bD6OqH-303" value="" style="shape=partialRectangle;connectable=0;fillColor=#DCB9FF;top=0;left=0;bottom=0;right=0;editable=1;overflow=hidden;" vertex="1" parent="gwSPfHCUQROc68bD6OqH-302">
          <mxGeometry width="30" height="35" as="geometry">
            <mxRectangle width="30" height="35" as="alternateBounds" />
          </mxGeometry>
        </mxCell>
        <mxCell id="gwSPfHCUQROc68bD6OqH-304" value="cus_paym_log" style="shape=partialRectangle;connectable=0;fillColor=#DCB9FF;top=0;left=0;bottom=0;right=0;align=left;spacingLeft=6;overflow=hidden;" vertex="1" parent="gwSPfHCUQROc68bD6OqH-302">
          <mxGeometry x="30" width="230" height="35" as="geometry">
            <mxRectangle width="230" height="35" as="alternateBounds" />
          </mxGeometry>
        </mxCell>
        <mxCell id="gwSPfHCUQROc68bD6OqH-305" value="item_offers" style="shape=table;startSize=30;container=1;collapsible=1;childLayout=tableLayout;fixedRows=1;rowLines=0;fontStyle=1;align=center;resizeLast=1;fillColor=#CC99FF;" vertex="1" parent="1">
          <mxGeometry x="1401" y="985" width="200" height="95" as="geometry">
            <mxRectangle x="290" y="315" width="90" height="30" as="alternateBounds" />
          </mxGeometry>
        </mxCell>
        <mxCell id="gwSPfHCUQROc68bD6OqH-306" value="" style="shape=tableRow;horizontal=0;startSize=0;swimlaneHead=0;swimlaneBody=0;fillColor=#FFCCCC;collapsible=0;dropTarget=0;points=[[0,0.5],[1,0.5]];portConstraint=eastwest;top=0;left=0;right=0;bottom=1;" vertex="1" parent="gwSPfHCUQROc68bD6OqH-305">
          <mxGeometry y="30" width="200" height="30" as="geometry" />
        </mxCell>
        <mxCell id="gwSPfHCUQROc68bD6OqH-307" value="PK" style="shape=partialRectangle;connectable=0;fillColor=#CC99FF;top=0;left=0;bottom=0;right=0;fontStyle=1;overflow=hidden;" vertex="1" parent="gwSPfHCUQROc68bD6OqH-306">
          <mxGeometry width="30" height="30" as="geometry">
            <mxRectangle width="30" height="30" as="alternateBounds" />
          </mxGeometry>
        </mxCell>
        <mxCell id="gwSPfHCUQROc68bD6OqH-308" value="offer_id" style="shape=partialRectangle;connectable=0;fillColor=#CC99FF;top=0;left=0;bottom=0;right=0;align=left;spacingLeft=6;fontStyle=5;overflow=hidden;" vertex="1" parent="gwSPfHCUQROc68bD6OqH-306">
          <mxGeometry x="30" width="170" height="30" as="geometry">
            <mxRectangle width="170" height="30" as="alternateBounds" />
          </mxGeometry>
        </mxCell>
        <mxCell id="gwSPfHCUQROc68bD6OqH-309" value="" style="shape=tableRow;horizontal=0;startSize=0;swimlaneHead=0;swimlaneBody=0;fillColor=#FFCCCC;collapsible=0;dropTarget=0;points=[[0,0.5],[1,0.5]];portConstraint=eastwest;top=0;left=0;right=0;bottom=0;" vertex="1" parent="gwSPfHCUQROc68bD6OqH-305">
          <mxGeometry y="60" width="200" height="35" as="geometry" />
        </mxCell>
        <mxCell id="gwSPfHCUQROc68bD6OqH-310" value="FK1" style="shape=partialRectangle;connectable=0;fillColor=#DCB9FF;top=0;left=0;bottom=0;right=0;editable=1;overflow=hidden;" vertex="1" parent="gwSPfHCUQROc68bD6OqH-309">
          <mxGeometry width="30" height="35" as="geometry">
            <mxRectangle width="30" height="35" as="alternateBounds" />
          </mxGeometry>
        </mxCell>
        <mxCell id="gwSPfHCUQROc68bD6OqH-311" value="amount" style="shape=partialRectangle;connectable=0;fillColor=#DCB9FF;top=0;left=0;bottom=0;right=0;align=left;spacingLeft=6;overflow=hidden;" vertex="1" parent="gwSPfHCUQROc68bD6OqH-309">
          <mxGeometry x="30" width="170" height="35" as="geometry">
            <mxRectangle width="170" height="35" as="alternateBounds" />
          </mxGeometry>
        </mxCell>
        <mxCell id="gwSPfHCUQROc68bD6OqH-312" value="&lt;p style=&quot;line-height: 1 ; font-size: 21px&quot;&gt;&lt;/p&gt;&lt;h3 style=&quot;font-size: 21px&quot;&gt;&lt;font style=&quot;font-size: 21px&quot; face=&quot;Comic Sans MS&quot; color=&quot;#330000&quot;&gt;Glomart™ Shopping System - Phase 1&lt;/font&gt;&lt;/h3&gt;&lt;p style=&quot;font-size: 21px&quot;&gt;&lt;/p&gt;" style="ellipse;whiteSpace=wrap;html=1;fillStyle=hachure;fillColor=#DDFFFD;sketch=1;shadow=1;strokeColor=#DDFFFD;" vertex="1" parent="1">
          <mxGeometry x="538" y="-40" width="240" height="140" as="geometry" />
        </mxCell>
        <mxCell id="gwSPfHCUQROc68bD6OqH-313" value="cus_cart" style="shape=table;startSize=30;container=1;collapsible=1;childLayout=tableLayout;fixedRows=1;rowLines=0;fontStyle=1;align=center;resizeLast=1;fillColor=#99FFCC;" vertex="1" parent="1">
          <mxGeometry x="1121" y="10" width="219" height="270" as="geometry">
            <mxRectangle x="1173" y="680" width="90" height="30" as="alternateBounds" />
          </mxGeometry>
        </mxCell>
        <mxCell id="gwSPfHCUQROc68bD6OqH-314" value="" style="shape=tableRow;horizontal=0;startSize=0;swimlaneHead=0;swimlaneBody=0;fillColor=#99FFCC;collapsible=0;dropTarget=0;points=[[0,0.5],[1,0.5]];portConstraint=eastwest;top=0;left=0;right=0;bottom=1;" vertex="1" parent="gwSPfHCUQROc68bD6OqH-313">
          <mxGeometry y="30" width="219" height="30" as="geometry" />
        </mxCell>
        <mxCell id="gwSPfHCUQROc68bD6OqH-315" value="PK" style="shape=partialRectangle;connectable=0;fillColor=#99FFCC;top=0;left=0;bottom=0;right=0;fontStyle=1;overflow=hidden;" vertex="1" parent="gwSPfHCUQROc68bD6OqH-314">
          <mxGeometry width="30" height="30" as="geometry">
            <mxRectangle width="30" height="30" as="alternateBounds" />
          </mxGeometry>
        </mxCell>
        <mxCell id="gwSPfHCUQROc68bD6OqH-316" value="cart_id int NOT NULL" style="shape=partialRectangle;connectable=0;fillColor=#99FFCC;top=0;left=0;bottom=0;right=0;align=left;spacingLeft=6;fontStyle=5;overflow=hidden;" vertex="1" parent="gwSPfHCUQROc68bD6OqH-314">
          <mxGeometry x="30" width="189" height="30" as="geometry">
            <mxRectangle width="189" height="30" as="alternateBounds" />
          </mxGeometry>
        </mxCell>
        <mxCell id="gwSPfHCUQROc68bD6OqH-317" value="" style="shape=tableRow;horizontal=0;startSize=0;swimlaneHead=0;swimlaneBody=0;fillColor=#99FFCC;collapsible=0;dropTarget=0;points=[[0,0.5],[1,0.5]];portConstraint=eastwest;top=0;left=0;right=0;bottom=0;" vertex="1" parent="gwSPfHCUQROc68bD6OqH-313">
          <mxGeometry y="60" width="219" height="35" as="geometry" />
        </mxCell>
        <mxCell id="gwSPfHCUQROc68bD6OqH-318" value="" style="shape=partialRectangle;connectable=0;fillColor=#99FFCC;top=0;left=0;bottom=0;right=0;editable=1;overflow=hidden;" vertex="1" parent="gwSPfHCUQROc68bD6OqH-317">
          <mxGeometry width="30" height="35" as="geometry">
            <mxRectangle width="30" height="35" as="alternateBounds" />
          </mxGeometry>
        </mxCell>
        <mxCell id="gwSPfHCUQROc68bD6OqH-319" value="cus_id" style="shape=partialRectangle;connectable=0;fillColor=#99FFCC;top=0;left=0;bottom=0;right=0;align=left;spacingLeft=6;overflow=hidden;" vertex="1" parent="gwSPfHCUQROc68bD6OqH-317">
          <mxGeometry x="30" width="189" height="35" as="geometry">
            <mxRectangle width="189" height="35" as="alternateBounds" />
          </mxGeometry>
        </mxCell>
        <mxCell id="gwSPfHCUQROc68bD6OqH-320" value="" style="shape=tableRow;horizontal=0;startSize=0;swimlaneHead=0;swimlaneBody=0;fillColor=#99FFCC;collapsible=0;dropTarget=0;points=[[0,0.5],[1,0.5]];portConstraint=eastwest;top=0;left=0;right=0;bottom=0;" vertex="1" parent="gwSPfHCUQROc68bD6OqH-313">
          <mxGeometry y="95" width="219" height="35" as="geometry" />
        </mxCell>
        <mxCell id="gwSPfHCUQROc68bD6OqH-321" value="" style="shape=partialRectangle;connectable=0;fillColor=#99FFCC;top=0;left=0;bottom=0;right=0;editable=1;overflow=hidden;" vertex="1" parent="gwSPfHCUQROc68bD6OqH-320">
          <mxGeometry width="30" height="35" as="geometry">
            <mxRectangle width="30" height="35" as="alternateBounds" />
          </mxGeometry>
        </mxCell>
        <mxCell id="gwSPfHCUQROc68bD6OqH-322" value="item_id" style="shape=partialRectangle;connectable=0;fillColor=#99FFCC;top=0;left=0;bottom=0;right=0;align=left;spacingLeft=6;overflow=hidden;" vertex="1" parent="gwSPfHCUQROc68bD6OqH-320">
          <mxGeometry x="30" width="189" height="35" as="geometry">
            <mxRectangle width="189" height="35" as="alternateBounds" />
          </mxGeometry>
        </mxCell>
        <mxCell id="gwSPfHCUQROc68bD6OqH-323" value="" style="shape=tableRow;horizontal=0;startSize=0;swimlaneHead=0;swimlaneBody=0;fillColor=#99FFCC;collapsible=0;dropTarget=0;points=[[0,0.5],[1,0.5]];portConstraint=eastwest;top=0;left=0;right=0;bottom=0;" vertex="1" parent="gwSPfHCUQROc68bD6OqH-313">
          <mxGeometry y="130" width="219" height="35" as="geometry" />
        </mxCell>
        <mxCell id="gwSPfHCUQROc68bD6OqH-324" value="" style="shape=partialRectangle;connectable=0;fillColor=#99FFCC;top=0;left=0;bottom=0;right=0;editable=1;overflow=hidden;" vertex="1" parent="gwSPfHCUQROc68bD6OqH-323">
          <mxGeometry width="30" height="35" as="geometry">
            <mxRectangle width="30" height="35" as="alternateBounds" />
          </mxGeometry>
        </mxCell>
        <mxCell id="gwSPfHCUQROc68bD6OqH-325" value="item_type" style="shape=partialRectangle;connectable=0;fillColor=#99FFCC;top=0;left=0;bottom=0;right=0;align=left;spacingLeft=6;overflow=hidden;" vertex="1" parent="gwSPfHCUQROc68bD6OqH-323">
          <mxGeometry x="30" width="189" height="35" as="geometry">
            <mxRectangle width="189" height="35" as="alternateBounds" />
          </mxGeometry>
        </mxCell>
        <mxCell id="gwSPfHCUQROc68bD6OqH-326" value="" style="shape=tableRow;horizontal=0;startSize=0;swimlaneHead=0;swimlaneBody=0;fillColor=#99FFCC;collapsible=0;dropTarget=0;points=[[0,0.5],[1,0.5]];portConstraint=eastwest;top=0;left=0;right=0;bottom=0;" vertex="1" parent="gwSPfHCUQROc68bD6OqH-313">
          <mxGeometry y="165" width="219" height="35" as="geometry" />
        </mxCell>
        <mxCell id="gwSPfHCUQROc68bD6OqH-327" value="" style="shape=partialRectangle;connectable=0;fillColor=#99FFCC;top=0;left=0;bottom=0;right=0;editable=1;overflow=hidden;" vertex="1" parent="gwSPfHCUQROc68bD6OqH-326">
          <mxGeometry width="30" height="35" as="geometry">
            <mxRectangle width="30" height="35" as="alternateBounds" />
          </mxGeometry>
        </mxCell>
        <mxCell id="gwSPfHCUQROc68bD6OqH-328" value="item_category" style="shape=partialRectangle;connectable=0;fillColor=#99FFCC;top=0;left=0;bottom=0;right=0;align=left;spacingLeft=6;overflow=hidden;" vertex="1" parent="gwSPfHCUQROc68bD6OqH-326">
          <mxGeometry x="30" width="189" height="35" as="geometry">
            <mxRectangle width="189" height="35" as="alternateBounds" />
          </mxGeometry>
        </mxCell>
        <mxCell id="gwSPfHCUQROc68bD6OqH-329" value="" style="shape=tableRow;horizontal=0;startSize=0;swimlaneHead=0;swimlaneBody=0;fillColor=#99FFCC;collapsible=0;dropTarget=0;points=[[0,0.5],[1,0.5]];portConstraint=eastwest;top=0;left=0;right=0;bottom=0;" vertex="1" parent="gwSPfHCUQROc68bD6OqH-313">
          <mxGeometry y="200" width="219" height="35" as="geometry" />
        </mxCell>
        <mxCell id="gwSPfHCUQROc68bD6OqH-330" value="" style="shape=partialRectangle;connectable=0;fillColor=#99FFCC;top=0;left=0;bottom=0;right=0;editable=1;overflow=hidden;" vertex="1" parent="gwSPfHCUQROc68bD6OqH-329">
          <mxGeometry width="30" height="35" as="geometry">
            <mxRectangle width="30" height="35" as="alternateBounds" />
          </mxGeometry>
        </mxCell>
        <mxCell id="gwSPfHCUQROc68bD6OqH-331" value="delv_id" style="shape=partialRectangle;connectable=0;fillColor=#99FFCC;top=0;left=0;bottom=0;right=0;align=left;spacingLeft=6;overflow=hidden;" vertex="1" parent="gwSPfHCUQROc68bD6OqH-329">
          <mxGeometry x="30" width="189" height="35" as="geometry">
            <mxRectangle width="189" height="35" as="alternateBounds" />
          </mxGeometry>
        </mxCell>
        <mxCell id="gwSPfHCUQROc68bD6OqH-332" value="" style="shape=tableRow;horizontal=0;startSize=0;swimlaneHead=0;swimlaneBody=0;fillColor=#99FFCC;collapsible=0;dropTarget=0;points=[[0,0.5],[1,0.5]];portConstraint=eastwest;top=0;left=0;right=0;bottom=0;" vertex="1" parent="gwSPfHCUQROc68bD6OqH-313">
          <mxGeometry y="235" width="219" height="35" as="geometry" />
        </mxCell>
        <mxCell id="gwSPfHCUQROc68bD6OqH-333" value="" style="shape=partialRectangle;connectable=0;fillColor=#99FFCC;top=0;left=0;bottom=0;right=0;editable=1;overflow=hidden;" vertex="1" parent="gwSPfHCUQROc68bD6OqH-332">
          <mxGeometry width="30" height="35" as="geometry">
            <mxRectangle width="30" height="35" as="alternateBounds" />
          </mxGeometry>
        </mxCell>
        <mxCell id="gwSPfHCUQROc68bD6OqH-334" value="qnty" style="shape=partialRectangle;connectable=0;fillColor=#99FFCC;top=0;left=0;bottom=0;right=0;align=left;spacingLeft=6;overflow=hidden;" vertex="1" parent="gwSPfHCUQROc68bD6OqH-332">
          <mxGeometry x="30" width="189" height="35" as="geometry">
            <mxRectangle width="189" height="35" as="alternateBounds" />
          </mxGeometry>
        </mxCell>
        <mxCell id="gwSPfHCUQROc68bD6OqH-335" value="cus_log" style="shape=table;startSize=30;container=1;collapsible=1;childLayout=tableLayout;fixedRows=1;rowLines=0;fontStyle=1;align=center;resizeLast=1;fillColor=#87DCD1;" vertex="1" parent="1">
          <mxGeometry x="850" y="80" width="200" height="200" as="geometry">
            <mxRectangle x="570" y="363" width="90" height="30" as="alternateBounds" />
          </mxGeometry>
        </mxCell>
        <mxCell id="gwSPfHCUQROc68bD6OqH-336" value="" style="shape=tableRow;horizontal=0;startSize=0;swimlaneHead=0;swimlaneBody=0;fillColor=#87DCD1;collapsible=0;dropTarget=0;points=[[0,0.5],[1,0.5]];portConstraint=eastwest;top=0;left=0;right=0;bottom=1;" vertex="1" parent="gwSPfHCUQROc68bD6OqH-335">
          <mxGeometry y="30" width="200" height="30" as="geometry" />
        </mxCell>
        <mxCell id="gwSPfHCUQROc68bD6OqH-337" value="PK" style="shape=partialRectangle;connectable=0;fillColor=#87DCD1;top=0;left=0;bottom=0;right=0;fontStyle=1;overflow=hidden;" vertex="1" parent="gwSPfHCUQROc68bD6OqH-336">
          <mxGeometry width="30" height="30" as="geometry">
            <mxRectangle width="30" height="30" as="alternateBounds" />
          </mxGeometry>
        </mxCell>
        <mxCell id="gwSPfHCUQROc68bD6OqH-338" value="log_id int NOT NULL" style="shape=partialRectangle;connectable=0;fillColor=#87DCD1;top=0;left=0;bottom=0;right=0;align=left;spacingLeft=6;fontStyle=5;overflow=hidden;" vertex="1" parent="gwSPfHCUQROc68bD6OqH-336">
          <mxGeometry x="30" width="170" height="30" as="geometry">
            <mxRectangle width="170" height="30" as="alternateBounds" />
          </mxGeometry>
        </mxCell>
        <mxCell id="gwSPfHCUQROc68bD6OqH-339" value="" style="shape=tableRow;horizontal=0;startSize=0;swimlaneHead=0;swimlaneBody=0;fillColor=#87DCD1;collapsible=0;dropTarget=0;points=[[0,0.5],[1,0.5]];portConstraint=eastwest;top=0;left=0;right=0;bottom=0;" vertex="1" parent="gwSPfHCUQROc68bD6OqH-335">
          <mxGeometry y="60" width="200" height="35" as="geometry" />
        </mxCell>
        <mxCell id="gwSPfHCUQROc68bD6OqH-340" value="FK1" style="shape=partialRectangle;connectable=0;fillColor=#99CCFF;top=0;left=0;bottom=0;right=0;editable=1;overflow=hidden;" vertex="1" parent="gwSPfHCUQROc68bD6OqH-339">
          <mxGeometry width="30" height="35" as="geometry">
            <mxRectangle width="30" height="35" as="alternateBounds" />
          </mxGeometry>
        </mxCell>
        <mxCell id="gwSPfHCUQROc68bD6OqH-341" value="cus_login_id" style="shape=partialRectangle;connectable=0;fillColor=#99CCFF;top=0;left=0;bottom=0;right=0;align=left;spacingLeft=6;overflow=hidden;" vertex="1" parent="gwSPfHCUQROc68bD6OqH-339">
          <mxGeometry x="30" width="170" height="35" as="geometry">
            <mxRectangle width="170" height="35" as="alternateBounds" />
          </mxGeometry>
        </mxCell>
        <mxCell id="gwSPfHCUQROc68bD6OqH-342" value="" style="shape=tableRow;horizontal=0;startSize=0;swimlaneHead=0;swimlaneBody=0;fillColor=#87DCD1;collapsible=0;dropTarget=0;points=[[0,0.5],[1,0.5]];portConstraint=eastwest;top=0;left=0;right=0;bottom=0;" vertex="1" parent="gwSPfHCUQROc68bD6OqH-335">
          <mxGeometry y="95" width="200" height="35" as="geometry" />
        </mxCell>
        <mxCell id="gwSPfHCUQROc68bD6OqH-343" value="FK2" style="shape=partialRectangle;connectable=0;fillColor=#99FFCC;top=0;left=0;bottom=0;right=0;editable=1;overflow=hidden;" vertex="1" parent="gwSPfHCUQROc68bD6OqH-342">
          <mxGeometry width="30" height="35" as="geometry">
            <mxRectangle width="30" height="35" as="alternateBounds" />
          </mxGeometry>
        </mxCell>
        <mxCell id="gwSPfHCUQROc68bD6OqH-344" value="cus_sys_notif" style="shape=partialRectangle;connectable=0;fillColor=#99FFCC;top=0;left=0;bottom=0;right=0;align=left;spacingLeft=6;overflow=hidden;" vertex="1" parent="gwSPfHCUQROc68bD6OqH-342">
          <mxGeometry x="30" width="170" height="35" as="geometry">
            <mxRectangle width="170" height="35" as="alternateBounds" />
          </mxGeometry>
        </mxCell>
        <mxCell id="gwSPfHCUQROc68bD6OqH-345" value="" style="shape=tableRow;horizontal=0;startSize=0;swimlaneHead=0;swimlaneBody=0;fillColor=#87DCD1;collapsible=0;dropTarget=0;points=[[0,0.5],[1,0.5]];portConstraint=eastwest;top=0;left=0;right=0;bottom=0;" vertex="1" parent="gwSPfHCUQROc68bD6OqH-335">
          <mxGeometry y="130" width="200" height="35" as="geometry" />
        </mxCell>
        <mxCell id="gwSPfHCUQROc68bD6OqH-346" value="FK3" style="shape=partialRectangle;connectable=0;fillColor=#99FF99;top=0;left=0;bottom=0;right=0;editable=1;overflow=hidden;" vertex="1" parent="gwSPfHCUQROc68bD6OqH-345">
          <mxGeometry width="30" height="35" as="geometry">
            <mxRectangle width="30" height="35" as="alternateBounds" />
          </mxGeometry>
        </mxCell>
        <mxCell id="gwSPfHCUQROc68bD6OqH-347" value="cus_msgs_log" style="shape=partialRectangle;connectable=0;fillColor=#99FF99;top=0;left=0;bottom=0;right=0;align=left;spacingLeft=6;overflow=hidden;" vertex="1" parent="gwSPfHCUQROc68bD6OqH-345">
          <mxGeometry x="30" width="170" height="35" as="geometry">
            <mxRectangle width="170" height="35" as="alternateBounds" />
          </mxGeometry>
        </mxCell>
        <mxCell id="gwSPfHCUQROc68bD6OqH-348" value="" style="shape=tableRow;horizontal=0;startSize=0;swimlaneHead=0;swimlaneBody=0;fillColor=#87DCD1;collapsible=0;dropTarget=0;points=[[0,0.5],[1,0.5]];portConstraint=eastwest;top=0;left=0;right=0;bottom=0;" vertex="1" parent="gwSPfHCUQROc68bD6OqH-335">
          <mxGeometry y="165" width="200" height="35" as="geometry" />
        </mxCell>
        <mxCell id="gwSPfHCUQROc68bD6OqH-349" value="FK4" style="shape=partialRectangle;connectable=0;fillColor=#FFCC99;top=0;left=0;bottom=0;right=0;editable=1;overflow=hidden;" vertex="1" parent="gwSPfHCUQROc68bD6OqH-348">
          <mxGeometry width="30" height="35" as="geometry">
            <mxRectangle width="30" height="35" as="alternateBounds" />
          </mxGeometry>
        </mxCell>
        <mxCell id="gwSPfHCUQROc68bD6OqH-350" value="cus_help_rqsts" style="shape=partialRectangle;connectable=0;fillColor=#FFCC99;top=0;left=0;bottom=0;right=0;align=left;spacingLeft=6;overflow=hidden;" vertex="1" parent="gwSPfHCUQROc68bD6OqH-348">
          <mxGeometry x="30" width="170" height="35" as="geometry">
            <mxRectangle width="170" height="35" as="alternateBounds" />
          </mxGeometry>
        </mxCell>
        <mxCell id="gwSPfHCUQROc68bD6OqH-351" value="rt_n_rv_id" style="shape=table;startSize=30;container=1;collapsible=1;childLayout=tableLayout;fixedRows=1;rowLines=0;fontStyle=1;align=center;resizeLast=1;fillColor=#7CD9F8;" vertex="1" parent="1">
          <mxGeometry x="1401" y="480" width="200" height="305" as="geometry">
            <mxRectangle x="290" y="315" width="90" height="30" as="alternateBounds" />
          </mxGeometry>
        </mxCell>
        <mxCell id="gwSPfHCUQROc68bD6OqH-352" value="" style="shape=tableRow;horizontal=0;startSize=0;swimlaneHead=0;swimlaneBody=0;fillColor=#7CD9F8;collapsible=0;dropTarget=0;points=[[0,0.5],[1,0.5]];portConstraint=eastwest;top=0;left=0;right=0;bottom=1;" vertex="1" parent="gwSPfHCUQROc68bD6OqH-351">
          <mxGeometry y="30" width="200" height="30" as="geometry" />
        </mxCell>
        <mxCell id="gwSPfHCUQROc68bD6OqH-353" value="PK" style="shape=partialRectangle;connectable=0;fillColor=#7CD9F8;top=0;left=0;bottom=0;right=0;fontStyle=1;overflow=hidden;" vertex="1" parent="gwSPfHCUQROc68bD6OqH-352">
          <mxGeometry width="30" height="30" as="geometry">
            <mxRectangle width="30" height="30" as="alternateBounds" />
          </mxGeometry>
        </mxCell>
        <mxCell id="gwSPfHCUQROc68bD6OqH-354" value="item_id" style="shape=partialRectangle;connectable=0;fillColor=#7CD9F8;top=0;left=0;bottom=0;right=0;align=left;spacingLeft=6;fontStyle=5;overflow=hidden;" vertex="1" parent="gwSPfHCUQROc68bD6OqH-352">
          <mxGeometry x="30" width="170" height="30" as="geometry">
            <mxRectangle width="170" height="30" as="alternateBounds" />
          </mxGeometry>
        </mxCell>
        <mxCell id="gwSPfHCUQROc68bD6OqH-355" value="" style="shape=tableRow;horizontal=0;startSize=0;swimlaneHead=0;swimlaneBody=0;fillColor=#FFCCCC;collapsible=0;dropTarget=0;points=[[0,0.5],[1,0.5]];portConstraint=eastwest;top=0;left=0;right=0;bottom=0;" vertex="1" parent="gwSPfHCUQROc68bD6OqH-351">
          <mxGeometry y="60" width="200" height="35" as="geometry" />
        </mxCell>
        <mxCell id="gwSPfHCUQROc68bD6OqH-356" value="FK1" style="shape=partialRectangle;connectable=0;fillColor=#DCB9FF;top=0;left=0;bottom=0;right=0;editable=1;overflow=hidden;" vertex="1" parent="gwSPfHCUQROc68bD6OqH-355">
          <mxGeometry width="30" height="35" as="geometry">
            <mxRectangle width="30" height="35" as="alternateBounds" />
          </mxGeometry>
        </mxCell>
        <mxCell id="gwSPfHCUQROc68bD6OqH-357" value="item_type" style="shape=partialRectangle;connectable=0;fillColor=#DCB9FF;top=0;left=0;bottom=0;right=0;align=left;spacingLeft=6;overflow=hidden;" vertex="1" parent="gwSPfHCUQROc68bD6OqH-355">
          <mxGeometry x="30" width="170" height="35" as="geometry">
            <mxRectangle width="170" height="35" as="alternateBounds" />
          </mxGeometry>
        </mxCell>
        <mxCell id="gwSPfHCUQROc68bD6OqH-358" value="" style="shape=tableRow;horizontal=0;startSize=0;swimlaneHead=0;swimlaneBody=0;fillColor=#FFCCCC;collapsible=0;dropTarget=0;points=[[0,0.5],[1,0.5]];portConstraint=eastwest;top=0;left=0;right=0;bottom=0;" vertex="1" parent="gwSPfHCUQROc68bD6OqH-351">
          <mxGeometry y="95" width="200" height="35" as="geometry" />
        </mxCell>
        <mxCell id="gwSPfHCUQROc68bD6OqH-359" value="FK1" style="shape=partialRectangle;connectable=0;fillColor=#DCB9FF;top=0;left=0;bottom=0;right=0;editable=1;overflow=hidden;" vertex="1" parent="gwSPfHCUQROc68bD6OqH-358">
          <mxGeometry width="30" height="35" as="geometry">
            <mxRectangle width="30" height="35" as="alternateBounds" />
          </mxGeometry>
        </mxCell>
        <mxCell id="gwSPfHCUQROc68bD6OqH-360" value="item_category" style="shape=partialRectangle;connectable=0;fillColor=#DCB9FF;top=0;left=0;bottom=0;right=0;align=left;spacingLeft=6;overflow=hidden;" vertex="1" parent="gwSPfHCUQROc68bD6OqH-358">
          <mxGeometry x="30" width="170" height="35" as="geometry">
            <mxRectangle width="170" height="35" as="alternateBounds" />
          </mxGeometry>
        </mxCell>
        <mxCell id="gwSPfHCUQROc68bD6OqH-361" value="" style="shape=tableRow;horizontal=0;startSize=0;swimlaneHead=0;swimlaneBody=0;fillColor=#FFCCCC;collapsible=0;dropTarget=0;points=[[0,0.5],[1,0.5]];portConstraint=eastwest;top=0;left=0;right=0;bottom=0;" vertex="1" parent="gwSPfHCUQROc68bD6OqH-351">
          <mxGeometry y="130" width="200" height="35" as="geometry" />
        </mxCell>
        <mxCell id="gwSPfHCUQROc68bD6OqH-362" value="FK1" style="shape=partialRectangle;connectable=0;fillColor=#DCB9FF;top=0;left=0;bottom=0;right=0;editable=1;overflow=hidden;" vertex="1" parent="gwSPfHCUQROc68bD6OqH-361">
          <mxGeometry width="30" height="35" as="geometry">
            <mxRectangle width="30" height="35" as="alternateBounds" />
          </mxGeometry>
        </mxCell>
        <mxCell id="gwSPfHCUQROc68bD6OqH-363" value="item_rates" style="shape=partialRectangle;connectable=0;fillColor=#DCB9FF;top=0;left=0;bottom=0;right=0;align=left;spacingLeft=6;overflow=hidden;" vertex="1" parent="gwSPfHCUQROc68bD6OqH-361">
          <mxGeometry x="30" width="170" height="35" as="geometry">
            <mxRectangle width="170" height="35" as="alternateBounds" />
          </mxGeometry>
        </mxCell>
        <mxCell id="gwSPfHCUQROc68bD6OqH-364" value="" style="shape=tableRow;horizontal=0;startSize=0;swimlaneHead=0;swimlaneBody=0;fillColor=#FFCCCC;collapsible=0;dropTarget=0;points=[[0,0.5],[1,0.5]];portConstraint=eastwest;top=0;left=0;right=0;bottom=0;" vertex="1" parent="gwSPfHCUQROc68bD6OqH-351">
          <mxGeometry y="165" width="200" height="35" as="geometry" />
        </mxCell>
        <mxCell id="gwSPfHCUQROc68bD6OqH-365" value="FK1" style="shape=partialRectangle;connectable=0;fillColor=#DCB9FF;top=0;left=0;bottom=0;right=0;editable=1;overflow=hidden;" vertex="1" parent="gwSPfHCUQROc68bD6OqH-364">
          <mxGeometry width="30" height="35" as="geometry">
            <mxRectangle width="30" height="35" as="alternateBounds" />
          </mxGeometry>
        </mxCell>
        <mxCell id="gwSPfHCUQROc68bD6OqH-366" value="item_rate_ratio" style="shape=partialRectangle;connectable=0;fillColor=#DCB9FF;top=0;left=0;bottom=0;right=0;align=left;spacingLeft=6;overflow=hidden;" vertex="1" parent="gwSPfHCUQROc68bD6OqH-364">
          <mxGeometry x="30" width="170" height="35" as="geometry">
            <mxRectangle width="170" height="35" as="alternateBounds" />
          </mxGeometry>
        </mxCell>
        <mxCell id="gwSPfHCUQROc68bD6OqH-367" value="" style="shape=tableRow;horizontal=0;startSize=0;swimlaneHead=0;swimlaneBody=0;fillColor=#FFCCCC;collapsible=0;dropTarget=0;points=[[0,0.5],[1,0.5]];portConstraint=eastwest;top=0;left=0;right=0;bottom=0;" vertex="1" parent="gwSPfHCUQROc68bD6OqH-351">
          <mxGeometry y="200" width="200" height="35" as="geometry" />
        </mxCell>
        <mxCell id="gwSPfHCUQROc68bD6OqH-368" value="FK1" style="shape=partialRectangle;connectable=0;fillColor=#DCB9FF;top=0;left=0;bottom=0;right=0;editable=1;overflow=hidden;" vertex="1" parent="gwSPfHCUQROc68bD6OqH-367">
          <mxGeometry width="30" height="35" as="geometry">
            <mxRectangle width="30" height="35" as="alternateBounds" />
          </mxGeometry>
        </mxCell>
        <mxCell id="gwSPfHCUQROc68bD6OqH-369" value="sold_amount" style="shape=partialRectangle;connectable=0;fillColor=#DCB9FF;top=0;left=0;bottom=0;right=0;align=left;spacingLeft=6;overflow=hidden;" vertex="1" parent="gwSPfHCUQROc68bD6OqH-367">
          <mxGeometry x="30" width="170" height="35" as="geometry">
            <mxRectangle width="170" height="35" as="alternateBounds" />
          </mxGeometry>
        </mxCell>
        <mxCell id="gwSPfHCUQROc68bD6OqH-370" value="" style="shape=tableRow;horizontal=0;startSize=0;swimlaneHead=0;swimlaneBody=0;fillColor=#FFCCCC;collapsible=0;dropTarget=0;points=[[0,0.5],[1,0.5]];portConstraint=eastwest;top=0;left=0;right=0;bottom=0;" vertex="1" parent="gwSPfHCUQROc68bD6OqH-351">
          <mxGeometry y="235" width="200" height="35" as="geometry" />
        </mxCell>
        <mxCell id="gwSPfHCUQROc68bD6OqH-371" value="FK1" style="shape=partialRectangle;connectable=0;fillColor=#DCB9FF;top=0;left=0;bottom=0;right=0;editable=1;overflow=hidden;" vertex="1" parent="gwSPfHCUQROc68bD6OqH-370">
          <mxGeometry width="30" height="35" as="geometry">
            <mxRectangle width="30" height="35" as="alternateBounds" />
          </mxGeometry>
        </mxCell>
        <mxCell id="gwSPfHCUQROc68bD6OqH-372" value="cus_id" style="shape=partialRectangle;connectable=0;fillColor=#DCB9FF;top=0;left=0;bottom=0;right=0;align=left;spacingLeft=6;overflow=hidden;" vertex="1" parent="gwSPfHCUQROc68bD6OqH-370">
          <mxGeometry x="30" width="170" height="35" as="geometry">
            <mxRectangle width="170" height="35" as="alternateBounds" />
          </mxGeometry>
        </mxCell>
        <mxCell id="gwSPfHCUQROc68bD6OqH-373" value="" style="shape=tableRow;horizontal=0;startSize=0;swimlaneHead=0;swimlaneBody=0;fillColor=#FFCCCC;collapsible=0;dropTarget=0;points=[[0,0.5],[1,0.5]];portConstraint=eastwest;top=0;left=0;right=0;bottom=0;" vertex="1" parent="gwSPfHCUQROc68bD6OqH-351">
          <mxGeometry y="270" width="200" height="35" as="geometry" />
        </mxCell>
        <mxCell id="gwSPfHCUQROc68bD6OqH-374" value="FK1" style="shape=partialRectangle;connectable=0;fillColor=#DCB9FF;top=0;left=0;bottom=0;right=0;editable=1;overflow=hidden;" vertex="1" parent="gwSPfHCUQROc68bD6OqH-373">
          <mxGeometry width="30" height="35" as="geometry">
            <mxRectangle width="30" height="35" as="alternateBounds" />
          </mxGeometry>
        </mxCell>
        <mxCell id="gwSPfHCUQROc68bD6OqH-375" value="cus_review" style="shape=partialRectangle;connectable=0;fillColor=#DCB9FF;top=0;left=0;bottom=0;right=0;align=left;spacingLeft=6;overflow=hidden;" vertex="1" parent="gwSPfHCUQROc68bD6OqH-373">
          <mxGeometry x="30" width="170" height="35" as="geometry">
            <mxRectangle width="170" height="35" as="alternateBounds" />
          </mxGeometry>
        </mxCell>
        <mxCell id="gwSPfHCUQROc68bD6OqH-376" value="item_stock" style="shape=table;startSize=30;container=1;collapsible=1;childLayout=tableLayout;fixedRows=1;rowLines=0;fontStyle=1;align=center;resizeLast=1;fillColor=#BDD7FD;" vertex="1" parent="1">
          <mxGeometry x="1400" y="820" width="199" height="130" as="geometry">
            <mxRectangle x="290" y="315" width="90" height="30" as="alternateBounds" />
          </mxGeometry>
        </mxCell>
        <mxCell id="gwSPfHCUQROc68bD6OqH-377" value="" style="shape=tableRow;horizontal=0;startSize=0;swimlaneHead=0;swimlaneBody=0;fillColor=#BDD7FD;collapsible=0;dropTarget=0;points=[[0,0.5],[1,0.5]];portConstraint=eastwest;top=0;left=0;right=0;bottom=1;" vertex="1" parent="gwSPfHCUQROc68bD6OqH-376">
          <mxGeometry y="30" width="199" height="30" as="geometry" />
        </mxCell>
        <mxCell id="gwSPfHCUQROc68bD6OqH-378" value="PK" style="shape=partialRectangle;connectable=0;fillColor=#BDD7FD;top=0;left=0;bottom=0;right=0;fontStyle=1;overflow=hidden;" vertex="1" parent="gwSPfHCUQROc68bD6OqH-377">
          <mxGeometry width="30" height="30" as="geometry">
            <mxRectangle width="30" height="30" as="alternateBounds" />
          </mxGeometry>
        </mxCell>
        <mxCell id="gwSPfHCUQROc68bD6OqH-379" value="stock_id" style="shape=partialRectangle;connectable=0;fillColor=#BDD7FD;top=0;left=0;bottom=0;right=0;align=left;spacingLeft=6;fontStyle=5;overflow=hidden;" vertex="1" parent="gwSPfHCUQROc68bD6OqH-377">
          <mxGeometry x="30" width="169" height="30" as="geometry">
            <mxRectangle width="169" height="30" as="alternateBounds" />
          </mxGeometry>
        </mxCell>
        <mxCell id="gwSPfHCUQROc68bD6OqH-380" value="" style="shape=tableRow;horizontal=0;startSize=0;swimlaneHead=0;swimlaneBody=0;fillColor=#FFCCCC;collapsible=0;dropTarget=0;points=[[0,0.5],[1,0.5]];portConstraint=eastwest;top=0;left=0;right=0;bottom=0;" vertex="1" parent="gwSPfHCUQROc68bD6OqH-376">
          <mxGeometry y="60" width="199" height="35" as="geometry" />
        </mxCell>
        <mxCell id="gwSPfHCUQROc68bD6OqH-381" value="FK1" style="shape=partialRectangle;connectable=0;fillColor=#DCB9FF;top=0;left=0;bottom=0;right=0;editable=1;overflow=hidden;" vertex="1" parent="gwSPfHCUQROc68bD6OqH-380">
          <mxGeometry width="30" height="35" as="geometry">
            <mxRectangle width="30" height="35" as="alternateBounds" />
          </mxGeometry>
        </mxCell>
        <mxCell id="gwSPfHCUQROc68bD6OqH-382" value="remaining_qnty" style="shape=partialRectangle;connectable=0;fillColor=#DCB9FF;top=0;left=0;bottom=0;right=0;align=left;spacingLeft=6;overflow=hidden;" vertex="1" parent="gwSPfHCUQROc68bD6OqH-380">
          <mxGeometry x="30" width="169" height="35" as="geometry">
            <mxRectangle width="169" height="35" as="alternateBounds" />
          </mxGeometry>
        </mxCell>
        <mxCell id="gwSPfHCUQROc68bD6OqH-383" value="" style="shape=tableRow;horizontal=0;startSize=0;swimlaneHead=0;swimlaneBody=0;fillColor=#FFCCCC;collapsible=0;dropTarget=0;points=[[0,0.5],[1,0.5]];portConstraint=eastwest;top=0;left=0;right=0;bottom=0;" vertex="1" parent="gwSPfHCUQROc68bD6OqH-376">
          <mxGeometry y="95" width="199" height="35" as="geometry" />
        </mxCell>
        <mxCell id="gwSPfHCUQROc68bD6OqH-384" value="FK1" style="shape=partialRectangle;connectable=0;fillColor=#DCB9FF;top=0;left=0;bottom=0;right=0;editable=1;overflow=hidden;" vertex="1" parent="gwSPfHCUQROc68bD6OqH-383">
          <mxGeometry width="30" height="35" as="geometry">
            <mxRectangle width="30" height="35" as="alternateBounds" />
          </mxGeometry>
        </mxCell>
        <mxCell id="gwSPfHCUQROc68bD6OqH-385" value="total_qnty" style="shape=partialRectangle;connectable=0;fillColor=#DCB9FF;top=0;left=0;bottom=0;right=0;align=left;spacingLeft=6;overflow=hidden;" vertex="1" parent="gwSPfHCUQROc68bD6OqH-383">
          <mxGeometry x="30" width="169" height="35" as="geometry">
            <mxRectangle width="169" height="35" as="alternateBounds" />
          </mxGeometry>
        </mxCell>
      </root>
    </mxGraphModel>
  </diagram>
</mxfile>
